{"glyphs":{"0":{"ha":2457,"x_min":58,"x_max":2399,"o":"m 2399 588 l 2272 588 q 2245 684 2270 642 q 2167 736 2216 734 l 2167 588 l 1910 588 q 1766 690 1848 588 l 1766 588 l 1640 588 l 1640 926 l 1881 926 q 1962 892 1926 926 q 1998 813 1998 858 q 1926 707 1998 738 q 1948 693 1933 693 l 2041 693 l 2041 926 l 2042 926 q 2272 821 2199 926 l 2272 926 l 2399 926 l 2399 588 m 2399 0 l 2203 0 l 2203 523 l 2399 523 l 2399 0 m 1597 757 q 1542 638 1597 689 q 1418 588 1487 588 q 1293 638 1348 588 q 1238 757 1238 689 l 1238 926 l 1353 926 l 1353 757 q 1373 712 1353 731 q 1418 693 1392 693 q 1464 712 1443 693 q 1484 757 1484 731 l 1484 926 l 1597 926 l 1597 757 m 2138 262 q 2053 78 2138 155 q 1860 0 1968 0 l 1581 0 l 1581 523 l 1860 523 q 2053 446 1968 523 q 2138 262 2138 368 m 1197 821 l 1081 821 l 1081 588 l 955 588 l 955 821 l 838 821 l 838 926 l 1197 926 l 1197 821 m 1516 0 l 993 0 l 993 523 l 1516 523 l 1516 360 l 1189 360 l 1189 330 l 1385 330 l 1385 193 l 1189 193 l 1189 163 l 1516 163 l 1516 0 m 796 588 l 328 588 q 247 623 286 588 q 185 690 229 638 l 185 588 l 58 588 l 58 926 l 299 926 q 381 892 345 926 q 417 813 417 858 q 344 707 417 738 q 366 693 351 693 l 458 693 l 458 926 l 796 926 l 796 821 l 584 821 l 584 802 l 712 802 l 712 713 l 584 713 l 584 693 l 796 693 l 796 588 m 927 -65 q 832 -205 927 -168 q 649 -229 771 -230 l 617 -65 q 648 -66 632 -66 q 751 0 751 -66 l 751 523 l 927 523 l 927 -65 m 685 465 l 58 465 l 58 523 l 685 523 l 685 465 m 685 69 l 500 69 l 500 256 l 685 256 l 685 198 l 569 198 l 569 188 l 639 188 l 639 139 l 569 139 l 569 128 l 685 128 l 685 69 m 464 395 l 348 395 l 348 384 l 418 384 l 418 336 l 348 336 l 348 267 l 279 267 l 279 454 l 464 454 l 464 395 m 477 69 l 406 69 l 406 139 l 348 139 l 348 69 l 279 69 l 279 256 l 348 256 l 348 188 l 406 188 l 406 256 l 477 256 l 477 69 m 256 360 q 225 295 256 322 q 156 267 194 267 q 88 295 118 267 q 58 360 58 323 q 88 426 58 398 q 156 454 118 454 q 225 426 194 454 q 256 360 256 398 m 685 0 l 58 0 l 58 58 l 685 58 l 685 0 m 256 198 l 191 198 l 191 69 l 122 69 l 122 198 l 58 198 l 58 256 l 256 256 l 256 198 m 1872 808 q 1846 833 1872 833 l 1766 833 l 1766 782 l 1846 782 q 1872 808 1872 782 m 1961 262 q 1930 330 1961 301 q 1860 360 1899 360 l 1765 360 l 1765 163 l 1860 163 q 1930 193 1899 163 q 1961 262 1961 222 m 291 808 q 265 833 291 833 l 185 833 l 185 782 l 265 782 q 291 808 291 782 m 192 360 q 156 395 192 395 q 120 360 120 395 q 156 325 120 325 q 192 360 192 325 z "},"1":{"ha":3563,"x_min":58,"x_max":3505,"o":"m 3505 124 q 3491 117 3505 117 q 3433 118 3471 117 q 3375 119 3395 119 q 3328 118 3359 119 q 3280 117 3296 117 q 3265 124 3265 117 q 3282 131 3265 128 q 3304 134 3294 133 q 3330 186 3330 144 l 3330 616 q 3303 663 3330 654 q 3281 667 3292 664 q 3264 675 3264 669 q 3275 681 3264 681 q 3327 679 3293 681 q 3378 678 3361 678 q 3426 679 3395 678 q 3473 681 3457 681 q 3486 675 3486 681 q 3471 667 3486 668 q 3450 664 3461 666 q 3421 610 3421 656 l 3421 193 q 3454 134 3421 145 q 3481 132 3468 133 q 3505 124 3505 130 m 3505 740 l 1836 740 q 1867 797 1867 758 l 3505 797 l 3505 740 m 2998 207 q 2959 115 2998 115 q 2851 117 2924 115 q 2742 119 2778 119 q 2694 118 2726 119 q 2647 117 2663 117 q 2632 124 2632 117 q 2649 131 2632 128 q 2671 134 2661 133 q 2697 190 2697 144 l 2697 605 q 2634 667 2697 667 q 2622 674 2622 667 q 2634 681 2622 681 q 2780 679 2683 681 q 2925 678 2876 678 q 2963 683 2950 678 q 2975 686 2972 686 q 2980 679 2980 686 q 2978 655 2980 670 q 2973 631 2975 637 q 2970 582 2973 615 q 2963 573 2968 573 q 2955 589 2958 573 q 2951 611 2953 601 q 2891 640 2941 640 l 2795 640 q 2791 633 2791 640 l 2791 444 q 2795 438 2791 438 l 2905 438 q 2963 459 2935 438 q 2968 454 2968 458 q 2965 434 2968 448 q 2958 350 2958 391 q 2951 336 2958 336 q 2943 350 2944 336 q 2942 368 2943 359 q 2873 400 2935 400 q 2833 400 2859 400 q 2794 399 2806 399 l 2791 396 l 2791 243 q 2817 166 2791 182 q 2902 155 2834 155 q 2950 164 2934 155 q 2984 219 2973 178 q 2992 230 2986 230 q 2998 207 2998 230 m 2653 406 q 2554 188 2653 269 q 2322 111 2462 111 q 2243 115 2295 111 q 2164 119 2191 119 q 2116 118 2148 119 q 2068 117 2084 117 q 2056 124 2056 117 q 2075 131 2056 128 q 2094 134 2094 134 q 2116 175 2111 141 q 2119 293 2119 198 q 2120 336 2119 307 q 2120 378 2120 365 l 2120 606 q 2086 664 2120 656 q 2063 667 2074 666 q 2044 674 2044 668 q 2057 681 2044 681 q 2112 679 2075 681 q 2168 678 2149 678 q 2225 679 2188 678 q 2282 681 2263 681 q 2653 406 2653 681 m 1872 869 l 1775 869 q 1772 865 1772 869 l 1772 861 q 1828 794 1828 825 q 1810 756 1828 772 q 1769 740 1792 740 l 1664 740 l 1664 799 q 1716 797 1709 797 q 1737 806 1735 797 q 1688 869 1688 837 q 1705 909 1688 892 q 1747 926 1723 926 l 1872 926 l 1872 869 m 1715 740 l 1609 740 q 1529 796 1575 740 l 1529 740 l 1459 740 l 1459 926 l 1593 926 q 1637 907 1618 926 q 1656 863 1656 888 q 1617 806 1656 823 q 1630 799 1622 799 l 1715 799 l 1715 740 m 1448 740 l 1376 740 l 1369 764 l 1317 764 l 1311 740 l 1238 740 l 1287 926 l 1398 926 l 1448 740 m 2063 412 q 1973 194 2063 282 q 1755 106 1884 106 q 1542 191 1630 106 q 1455 399 1455 275 q 1545 608 1455 525 q 1763 690 1635 690 q 1976 617 1892 690 q 2063 412 2063 541 m 1264 926 l 1215 740 l 1135 740 l 1119 802 l 1103 740 l 1023 740 l 976 926 l 1047 926 l 1064 863 l 1080 926 l 1160 926 l 1175 863 l 1192 926 l 1264 926 m 3505 0 l 58 0 l 58 57 l 3505 57 l 3505 0 m 1426 267 q 1362 146 1426 190 q 1225 106 1306 106 q 1115 152 1115 106 l 1115 175 q 1127 269 1115 269 q 1137 245 1132 269 q 1141 218 1139 231 q 1181 163 1150 184 q 1248 142 1212 142 q 1317 167 1286 142 q 1348 228 1348 191 q 1292 337 1348 284 q 1188 427 1240 382 q 1131 550 1131 484 q 1186 654 1131 613 q 1302 690 1236 690 q 1363 685 1325 690 q 1412 669 1412 678 q 1410 621 1412 653 q 1409 573 1409 589 q 1400 558 1409 558 q 1394 571 1394 558 q 1374 620 1394 597 q 1293 656 1344 656 q 1231 634 1259 656 q 1204 580 1204 612 q 1262 487 1204 537 q 1368 395 1315 441 q 1426 267 1426 334 m 931 740 l 815 740 q 736 796 782 740 l 736 740 l 667 740 l 667 926 l 799 926 q 844 907 824 926 q 863 863 863 889 q 823 806 863 823 q 836 799 828 799 l 931 799 l 931 740 m 654 740 l 582 740 l 576 764 l 523 764 l 517 740 l 446 740 l 493 926 l 605 926 l 654 740 m 1084 124 q 1069 117 1084 117 q 1012 118 1050 117 q 954 119 973 119 q 907 118 938 119 q 860 117 876 117 q 845 124 845 117 q 862 131 845 128 q 884 134 874 132 q 910 197 910 144 l 910 612 q 882 663 910 654 q 860 666 872 664 q 844 675 844 669 q 854 681 844 681 q 906 679 872 681 q 958 678 941 678 q 1006 679 975 678 q 1053 681 1037 681 q 1065 675 1065 681 q 1050 667 1065 668 q 1030 664 1041 666 q 1001 609 1001 656 l 1001 186 q 1034 134 1001 144 q 1061 132 1047 133 q 1084 124 1084 130 m 463 869 l 398 869 l 398 740 l 329 740 l 329 869 l 264 869 l 264 926 l 463 926 l 463 869 m 856 549 q 800 419 856 469 q 662 369 743 369 q 649 376 649 369 q 664 384 649 384 q 708 396 686 384 q 770 507 770 427 q 734 606 770 565 q 641 648 698 648 q 616 631 616 648 l 616 204 q 649 134 616 145 q 676 132 663 133 q 698 124 698 128 q 684 117 698 117 q 627 118 664 117 q 569 119 589 119 q 522 118 553 119 q 475 117 491 117 q 459 124 459 117 q 477 131 459 128 q 499 134 499 134 q 524 196 524 145 l 524 604 q 491 664 524 655 q 468 667 479 666 q 449 674 449 669 q 462 681 449 681 q 517 679 480 681 q 573 678 554 678 q 627 679 591 678 q 681 681 662 681 q 799 650 751 681 q 856 549 856 615 m 299 869 l 225 869 q 220 863 220 869 q 256 833 238 848 q 277 794 277 815 q 259 756 277 772 q 218 740 241 740 l 58 740 l 58 799 l 182 799 q 188 804 186 799 q 154 834 171 818 q 137 869 137 850 q 154 909 137 891 q 194 926 171 926 l 299 926 l 299 869 m 434 196 q 397 115 434 115 q 288 117 360 115 q 178 119 215 119 q 131 118 162 119 q 84 117 101 117 q 69 124 69 117 q 87 131 69 128 q 108 134 97 133 q 133 188 133 144 l 133 608 q 71 667 133 667 q 58 674 58 667 q 71 681 58 681 q 214 679 118 681 q 356 678 309 678 q 399 683 385 678 q 412 686 410 686 q 417 679 417 686 q 413 661 417 677 q 411 612 412 637 q 399 573 407 573 q 392 590 396 573 q 388 611 390 601 q 328 640 377 640 l 231 640 q 227 633 227 640 l 227 444 q 231 438 227 438 l 348 438 q 399 459 376 438 q 405 454 405 458 q 402 434 405 449 q 396 353 396 409 q 388 336 396 336 q 381 350 383 336 q 378 368 380 359 q 300 400 370 400 q 265 399 288 400 q 231 399 243 399 q 227 392 227 399 l 227 236 q 257 164 227 179 q 338 155 274 155 q 387 164 370 155 q 420 219 410 178 q 428 230 422 230 q 434 196 434 230 m 2553 384 q 2465 581 2553 510 q 2256 646 2385 646 q 2212 615 2212 646 l 2212 257 q 2231 167 2212 189 q 2319 146 2251 146 q 2493 208 2433 146 q 2553 384 2553 270 m 1587 861 q 1573 875 1587 875 l 1529 875 l 1529 847 l 1573 847 q 1587 861 1587 847 m 1358 810 l 1343 863 l 1329 810 l 1358 810 m 1958 384 q 1904 567 1958 490 q 1741 655 1841 655 q 1600 582 1649 655 q 1558 422 1558 519 q 1616 233 1558 314 q 1786 144 1681 144 q 1920 223 1874 144 q 1958 384 1958 289 m 794 861 q 780 875 794 875 l 736 875 l 736 847 l 780 847 q 794 861 794 847 m 564 810 l 550 863 l 535 810 l 564 810 z "},"2":{"ha":3822,"x_min":58,"x_max":3764,"o":"m 3764 124 q 3749 117 3764 117 q 3691 118 3729 117 q 3633 119 3653 119 q 3586 118 3617 119 q 3539 117 3556 117 q 3524 124 3524 117 q 3542 131 3524 128 q 3563 134 3552 133 q 3588 189 3588 144 l 3588 616 q 3561 663 3588 654 q 3539 666 3551 664 q 3523 675 3523 669 q 3534 681 3523 681 q 3585 679 3551 681 q 3637 678 3619 678 q 3685 679 3653 678 q 3733 681 3716 681 q 3744 675 3744 681 q 3729 667 3744 668 q 3709 664 3720 666 q 3679 601 3679 656 l 3679 186 q 3713 134 3679 145 q 3741 132 3727 133 q 3764 124 3764 130 m 3505 124 q 3491 117 3505 117 q 3432 118 3471 117 q 3374 119 3394 119 q 3327 118 3358 119 q 3280 117 3296 117 q 3265 124 3265 117 q 3282 131 3265 128 q 3304 134 3304 134 q 3326 171 3322 141 q 3329 231 3329 186 l 3330 601 q 3303 663 3330 654 q 3281 667 3292 664 q 3264 675 3264 669 q 3275 681 3264 681 q 3327 679 3293 681 q 3378 678 3361 678 q 3426 679 3395 678 q 3473 681 3457 681 q 3486 675 3486 681 q 3471 667 3486 668 q 3450 664 3461 666 q 3421 606 3421 656 l 3421 192 q 3454 134 3421 145 q 3481 132 3468 133 q 3505 124 3505 130 m 3764 740 l 1836 740 q 1867 797 1867 758 l 3764 797 l 3764 740 m 2998 214 q 2959 115 2998 115 q 2850 117 2922 115 q 2741 119 2778 119 q 2694 118 2725 119 q 2647 117 2663 117 q 2632 124 2632 117 q 2649 131 2632 128 q 2671 134 2661 132 q 2696 188 2696 144 l 2696 606 q 2634 667 2696 667 q 2622 674 2622 667 q 2634 681 2622 681 q 2780 679 2683 681 q 2925 678 2876 678 q 2963 683 2950 678 q 2975 686 2972 686 q 2979 679 2979 686 q 2968 582 2979 656 q 2962 573 2966 573 q 2955 590 2958 573 q 2951 611 2954 601 q 2892 640 2941 640 l 2795 640 q 2791 633 2791 640 l 2791 444 q 2795 438 2791 438 l 2913 438 q 2962 459 2939 438 q 2968 454 2968 458 q 2965 434 2968 448 q 2958 350 2958 391 q 2951 336 2958 336 q 2943 350 2946 336 q 2942 368 2943 359 q 2866 402 2935 402 q 2841 402 2858 402 q 2818 400 2825 400 q 2791 396 2791 400 l 2791 243 q 2815 166 2791 181 q 2898 155 2832 155 q 2949 164 2933 155 q 2984 219 2973 178 q 2992 230 2986 230 q 2998 214 2998 230 m 2653 406 q 2554 188 2653 269 q 2322 111 2462 111 q 2243 115 2295 111 q 2164 119 2191 119 q 2116 118 2148 119 q 2068 117 2084 117 q 2056 124 2056 117 q 2075 131 2056 128 q 2094 134 2094 134 q 2115 174 2110 141 q 2119 293 2119 206 q 2120 446 2119 344 q 2120 598 2120 547 q 2086 664 2120 654 q 2063 667 2074 666 q 2044 674 2044 669 q 2057 681 2044 681 q 2112 679 2075 681 q 2168 678 2149 678 q 2225 679 2188 678 q 2282 681 2263 681 q 2653 406 2653 681 m 1872 869 l 1775 869 q 1772 865 1772 869 l 1772 861 q 1828 794 1828 826 q 1810 756 1828 772 q 1769 740 1792 740 l 1664 740 l 1664 799 l 1733 799 q 1737 806 1738 799 q 1688 869 1688 837 q 1705 909 1688 891 q 1745 926 1722 926 l 1872 926 l 1872 869 m 1715 740 l 1609 740 q 1529 796 1575 740 l 1529 740 l 1459 740 l 1459 926 l 1591 926 q 1637 907 1617 926 q 1656 863 1656 889 q 1617 806 1656 823 q 1628 799 1622 799 l 1715 799 l 1715 740 m 1447 740 l 1375 740 l 1369 764 l 1316 764 l 1311 740 l 1238 740 l 1287 926 l 1398 926 l 1447 740 m 2063 412 q 1973 195 2063 284 q 1755 106 1884 106 q 1542 190 1628 106 q 1455 399 1455 274 q 1545 608 1455 525 q 1763 690 1635 690 q 1976 617 1892 690 q 2063 412 2063 541 m 1264 926 l 1215 740 l 1135 740 l 1119 802 l 1103 740 l 1023 740 l 976 926 l 1047 926 l 1064 863 l 1080 926 l 1160 926 l 1175 863 l 1192 926 l 1264 926 m 3764 0 l 58 0 l 58 57 l 3764 57 l 3764 0 m 1426 267 q 1361 145 1426 189 q 1221 106 1304 106 q 1115 152 1115 106 l 1115 175 q 1127 269 1115 269 q 1137 245 1132 269 q 1141 218 1139 231 q 1181 163 1150 184 q 1248 142 1212 142 q 1317 167 1286 142 q 1348 228 1348 191 q 1292 337 1348 285 q 1186 427 1240 382 q 1130 550 1130 484 q 1185 654 1130 613 q 1302 690 1236 690 q 1363 685 1325 690 q 1412 669 1412 678 q 1410 620 1412 653 q 1409 573 1409 588 q 1400 558 1409 558 q 1392 571 1392 558 q 1374 620 1392 596 q 1293 656 1346 656 q 1231 634 1259 656 q 1204 580 1204 612 q 1262 487 1204 537 q 1368 395 1315 441 q 1426 267 1426 334 m 931 740 l 815 740 q 735 796 781 740 l 735 740 l 666 740 l 666 926 l 799 926 q 844 907 824 926 q 863 863 863 889 q 823 806 863 823 q 836 799 828 799 l 931 799 l 931 740 m 654 740 l 582 740 l 576 764 l 523 764 l 516 740 l 444 740 l 493 926 l 605 926 l 654 740 m 1084 124 q 1069 117 1084 117 q 1012 118 1050 117 q 954 119 973 119 q 907 118 938 119 q 860 117 876 117 q 845 124 845 117 q 862 131 845 128 q 884 134 884 134 q 909 186 909 144 l 909 615 q 882 663 909 654 q 860 666 872 664 q 844 675 844 669 q 854 681 844 681 q 906 679 872 681 q 958 678 941 678 q 1006 679 975 678 q 1053 681 1037 681 q 1065 675 1065 681 q 1050 667 1065 668 q 1030 664 1041 666 q 1000 604 1000 656 l 1000 196 q 1071 131 1000 131 q 1084 124 1084 131 m 462 869 l 398 869 l 398 740 l 328 740 l 328 869 l 264 869 l 264 926 l 462 926 l 462 869 m 856 549 q 799 419 856 469 q 661 369 742 369 q 648 376 648 369 q 664 384 648 384 q 707 396 685 384 q 770 507 770 428 q 733 606 770 565 q 640 648 697 648 q 616 631 616 648 l 616 206 q 648 134 616 145 q 676 131 662 133 q 698 124 698 128 q 684 117 698 117 q 626 118 664 117 q 568 119 588 119 q 521 118 552 119 q 475 117 491 117 q 459 124 459 117 q 477 131 459 128 q 499 134 488 133 q 524 194 524 145 l 524 604 q 491 664 524 655 q 468 667 479 666 q 449 674 449 669 q 462 681 449 681 q 517 679 480 681 q 573 678 554 678 q 627 679 591 678 q 681 681 662 681 q 799 650 751 681 q 856 549 856 615 m 299 869 l 225 869 q 220 863 220 869 q 256 833 237 848 q 275 794 275 815 q 258 756 275 772 q 218 740 240 740 l 58 740 l 58 799 l 182 799 q 186 806 188 799 q 137 869 137 836 q 154 909 137 891 q 193 926 171 926 l 299 926 l 299 869 m 434 203 q 397 115 434 115 q 288 117 360 115 q 178 119 215 119 q 131 118 162 119 q 84 117 101 117 q 69 124 69 117 q 87 131 69 128 q 108 134 97 133 q 133 199 133 145 l 133 605 q 71 667 133 667 q 58 674 58 667 q 71 681 58 681 q 214 679 118 681 q 359 678 310 678 q 399 683 385 678 q 412 686 410 686 q 417 679 417 686 q 414 655 417 670 q 410 631 411 637 q 406 582 410 615 q 399 573 404 573 q 392 590 396 573 q 388 611 390 601 q 324 640 376 640 l 231 640 q 227 633 227 640 l 227 444 q 231 438 227 438 l 351 438 q 399 459 376 438 q 405 454 405 458 q 402 434 405 449 q 395 350 395 404 q 388 336 395 336 q 378 369 385 336 q 299 402 370 402 l 295 402 l 255 400 q 227 396 227 399 l 227 236 q 247 172 227 189 q 315 155 266 155 q 388 168 375 155 q 428 230 407 199 q 434 203 434 222 m 2553 384 q 2465 581 2553 510 q 2256 646 2384 646 q 2212 615 2212 646 l 2212 252 q 2235 168 2212 191 q 2319 146 2258 146 q 2493 208 2433 146 q 2553 384 2553 270 m 1587 861 q 1573 875 1587 875 l 1529 875 l 1529 847 l 1573 847 q 1587 861 1587 847 m 1358 810 l 1343 863 l 1329 810 l 1358 810 m 1958 384 q 1903 567 1958 490 q 1741 655 1841 655 q 1600 582 1649 655 q 1558 422 1558 519 q 1616 233 1558 314 q 1786 144 1681 144 q 1920 223 1874 144 q 1958 384 1958 289 m 794 861 q 779 875 794 875 l 735 875 l 735 847 l 779 847 q 794 861 794 847 m 564 810 l 549 863 l 535 810 l 564 810 z "},"3":{"ha":4081,"x_min":58,"x_max":4023,"o":"m 4023 124 q 4008 117 4023 117 q 3950 118 3988 117 q 3892 119 3912 119 q 3845 118 3876 119 q 3799 117 3815 117 q 3784 124 3784 117 q 3801 131 3784 128 q 3822 134 3811 133 q 3847 186 3847 144 l 3847 615 q 3821 663 3847 654 q 3799 667 3809 664 q 3781 675 3781 669 q 3793 681 3781 681 q 3844 679 3810 681 q 3896 678 3878 678 q 3944 679 3912 678 q 3992 681 3976 681 q 4002 675 4002 681 q 3987 667 4002 668 q 3968 664 3978 666 q 3939 609 3939 656 l 3939 193 q 4008 131 3939 131 q 4023 124 4023 131 m 3764 124 q 3750 117 3764 117 q 3692 118 3730 117 q 3633 119 3653 119 q 3586 118 3617 119 q 3539 117 3556 117 q 3524 124 3524 117 q 3542 131 3524 128 q 3564 134 3553 132 q 3588 188 3588 144 l 3588 612 q 3561 663 3588 654 q 3539 666 3551 664 q 3523 675 3523 669 q 3535 681 3523 681 q 3586 679 3552 681 q 3638 678 3620 678 q 3685 679 3654 678 q 3733 681 3716 681 q 3744 675 3744 681 q 3729 667 3744 668 q 3709 664 3720 666 q 3681 608 3681 656 l 3681 186 q 3713 134 3681 144 q 3741 132 3727 133 q 3764 124 3764 130 m 3505 124 q 3491 117 3505 117 q 3433 118 3471 117 q 3375 119 3395 119 q 3328 118 3359 119 q 3280 117 3296 117 q 3265 124 3265 117 q 3282 131 3265 128 q 3304 134 3294 133 q 3330 188 3330 144 l 3330 613 q 3303 663 3330 654 q 3281 667 3292 664 q 3264 675 3264 669 q 3275 681 3264 681 q 3327 679 3293 681 q 3378 678 3361 678 q 3426 679 3395 678 q 3473 681 3457 681 q 3486 675 3486 681 q 3471 667 3486 668 q 3450 664 3461 666 q 3422 613 3422 656 l 3422 189 q 3454 134 3422 144 q 3481 132 3468 133 q 3505 124 3505 130 m 4023 740 l 1836 740 q 1867 797 1867 758 l 4023 797 l 4023 740 m 2998 207 q 2959 115 2998 115 q 2851 117 2924 115 q 2742 119 2778 119 q 2694 118 2726 119 q 2647 117 2663 117 q 2632 124 2632 117 q 2649 131 2632 128 q 2671 134 2661 133 q 2697 190 2697 144 l 2697 608 q 2634 667 2697 667 q 2622 674 2622 667 q 2634 681 2622 681 q 2780 679 2683 681 q 2925 678 2876 678 q 2963 683 2950 678 q 2975 686 2972 686 q 2980 679 2980 686 q 2978 655 2980 670 q 2973 631 2975 637 q 2970 582 2973 615 q 2963 573 2968 573 q 2955 589 2958 573 q 2951 611 2953 601 q 2892 640 2941 640 l 2795 640 q 2791 633 2791 640 l 2791 444 q 2795 438 2791 438 l 2904 438 q 2963 459 2931 438 q 2968 454 2968 458 q 2965 434 2968 448 q 2958 350 2958 391 q 2951 336 2958 336 q 2943 350 2944 336 q 2942 368 2943 359 q 2873 400 2935 400 q 2833 400 2859 400 q 2794 399 2806 399 l 2791 396 l 2791 236 q 2819 164 2791 178 q 2902 155 2837 155 q 2950 164 2934 155 q 2984 219 2973 178 q 2992 230 2986 230 q 2998 207 2998 230 m 2653 406 q 2554 188 2653 269 q 2322 111 2462 111 q 2243 115 2295 111 q 2164 119 2191 119 q 2116 118 2148 119 q 2068 117 2084 117 q 2056 124 2056 117 q 2075 131 2056 128 q 2094 134 2094 134 q 2116 175 2111 141 q 2119 293 2119 198 q 2120 336 2119 307 q 2120 377 2120 363 l 2120 606 q 2086 664 2120 656 q 2063 667 2074 666 q 2044 674 2044 668 q 2057 681 2044 681 q 2112 679 2075 681 q 2168 678 2149 678 q 2225 679 2188 678 q 2282 681 2263 681 q 2653 406 2653 681 m 1872 869 l 1775 869 q 1772 865 1772 869 l 1772 861 q 1828 794 1828 825 q 1810 756 1828 772 q 1769 740 1792 740 l 1664 740 l 1664 799 q 1716 797 1709 797 q 1737 806 1735 797 q 1688 869 1688 837 q 1705 909 1688 892 q 1747 926 1723 926 l 1872 926 l 1872 869 m 1715 740 l 1609 740 q 1529 796 1575 740 l 1529 740 l 1459 740 l 1459 926 l 1593 926 q 1637 907 1618 926 q 1656 863 1656 888 q 1617 806 1656 823 q 1630 799 1622 799 l 1715 799 l 1715 740 m 1448 740 l 1376 740 l 1369 764 l 1317 764 l 1311 740 l 1238 740 l 1287 926 l 1398 926 l 1448 740 m 2063 412 q 1973 194 2063 282 q 1755 106 1884 106 q 1542 191 1630 106 q 1455 399 1455 275 q 1545 608 1455 525 q 1763 690 1635 690 q 1976 617 1892 690 q 2063 412 2063 541 m 4023 0 l 58 0 l 58 57 l 4023 57 l 4023 0 m 1264 926 l 1215 740 l 1135 740 l 1119 802 l 1103 740 l 1023 740 l 976 926 l 1047 926 l 1064 863 l 1080 926 l 1160 926 l 1175 863 l 1192 926 l 1264 926 m 1426 267 q 1362 146 1426 190 q 1225 106 1306 106 q 1115 152 1115 106 l 1115 175 q 1127 269 1115 269 q 1137 245 1132 269 q 1141 218 1139 231 q 1181 163 1150 184 q 1248 142 1212 142 q 1317 167 1286 142 q 1348 228 1348 191 q 1292 337 1348 284 q 1188 427 1240 382 q 1131 550 1131 484 q 1186 654 1131 613 q 1302 690 1236 690 q 1363 685 1325 690 q 1412 669 1412 678 q 1410 621 1412 653 q 1409 573 1409 589 q 1400 558 1409 558 q 1394 571 1394 558 q 1374 620 1394 597 q 1293 656 1344 656 q 1231 634 1259 656 q 1204 580 1204 612 q 1262 487 1204 537 q 1368 395 1315 441 q 1426 267 1426 334 m 931 740 l 815 740 q 736 796 782 740 l 736 740 l 667 740 l 667 926 l 799 926 q 844 907 824 926 q 863 863 863 889 q 823 806 863 823 q 836 799 828 799 l 931 799 l 931 740 m 654 740 l 582 740 l 576 764 l 523 764 l 517 740 l 446 740 l 493 926 l 605 926 l 654 740 m 1084 124 q 1069 117 1084 117 q 1012 118 1050 117 q 954 119 973 119 q 907 118 938 119 q 860 117 876 117 q 845 124 845 117 q 862 131 845 128 q 884 134 874 132 q 910 197 910 144 l 910 612 q 882 663 910 654 q 860 666 872 664 q 844 675 844 669 q 854 681 844 681 q 906 679 872 681 q 958 678 941 678 q 1006 679 975 678 q 1053 681 1037 681 q 1065 675 1065 681 q 1050 667 1065 668 q 1030 664 1041 666 q 1001 609 1001 656 l 1001 186 q 1034 134 1001 144 q 1061 132 1047 133 q 1084 124 1084 130 m 463 869 l 398 869 l 398 740 l 329 740 l 329 869 l 264 869 l 264 926 l 463 926 l 463 869 m 856 549 q 800 419 856 469 q 662 369 743 369 q 649 376 649 369 q 664 384 649 384 q 708 396 686 384 q 770 507 770 427 q 734 606 770 565 q 641 648 698 648 q 616 631 616 648 l 616 204 q 649 134 616 145 q 676 132 663 133 q 698 124 698 128 q 684 117 698 117 q 627 118 664 117 q 569 119 589 119 q 522 118 553 119 q 475 117 491 117 q 459 124 459 117 q 477 131 459 128 q 499 134 499 134 q 524 196 524 145 l 524 604 q 491 664 524 655 q 468 667 479 666 q 449 674 449 669 q 462 681 449 681 q 517 679 480 681 q 573 678 554 678 q 627 679 591 678 q 681 681 662 681 q 799 650 751 681 q 856 549 856 615 m 299 869 l 225 869 q 220 863 220 869 q 256 833 238 848 q 277 794 277 815 q 259 756 277 772 q 218 740 241 740 l 58 740 l 58 799 l 182 799 q 188 804 186 799 q 154 834 171 818 q 137 869 137 850 q 154 909 137 891 q 194 926 171 926 l 299 926 l 299 869 m 434 196 q 397 115 434 115 q 288 117 360 115 q 178 119 215 119 q 131 118 162 119 q 84 117 101 117 q 69 124 69 117 q 87 131 69 128 q 108 134 97 133 q 133 186 133 144 l 133 608 q 71 667 133 667 q 58 674 58 667 q 71 681 58 681 q 214 679 118 681 q 356 678 309 678 q 399 683 385 678 q 412 686 410 686 q 417 679 417 686 q 413 661 417 677 q 411 612 412 637 q 399 573 407 573 q 392 590 396 573 q 388 611 390 601 q 328 640 377 640 l 231 640 q 227 633 227 640 l 227 444 q 231 438 227 438 l 346 438 q 399 459 375 438 q 405 454 405 458 q 402 434 405 449 q 396 353 396 409 q 388 336 396 336 q 381 350 383 336 q 378 368 380 359 q 301 400 370 400 q 266 399 289 400 q 231 399 243 399 q 227 392 227 399 l 227 236 q 257 164 227 181 q 337 155 275 155 q 387 164 370 155 q 420 219 410 178 q 428 230 422 230 q 434 196 434 230 m 2553 384 q 2463 582 2553 512 q 2251 646 2382 646 q 2212 615 2212 646 l 2212 257 q 2232 168 2212 190 q 2319 146 2252 146 q 2493 208 2433 146 q 2553 384 2553 270 m 1587 861 q 1573 875 1587 875 l 1529 875 l 1529 847 l 1573 847 q 1587 861 1587 847 m 1358 810 l 1343 863 l 1329 810 l 1358 810 m 1958 384 q 1903 567 1958 490 q 1741 655 1841 655 q 1600 582 1648 655 q 1558 422 1558 519 q 1616 233 1558 314 q 1786 144 1681 144 q 1920 223 1874 144 q 1958 384 1958 289 m 794 861 q 780 875 794 875 l 736 875 l 736 847 l 780 847 q 794 861 794 847 m 564 810 l 550 863 l 535 810 l 564 810 z "},"4":{"ha":4124,"x_min":58,"x_max":4066,"o":"m 4066 674 q 4017 657 4050 669 q 3977 591 3998 647 q 3882 376 3951 522 q 3788 161 3815 238 q 3753 106 3770 106 q 3735 125 3742 106 q 3726 153 3730 139 l 3538 608 q 3481 663 3519 656 q 3443 674 3443 670 q 3456 681 3443 681 q 3513 679 3475 681 q 3569 678 3551 678 q 3619 679 3586 678 q 3668 681 3652 681 q 3679 674 3679 681 q 3656 666 3679 670 q 3632 646 3632 661 q 3648 588 3632 631 l 3777 251 l 3779 251 q 3872 450 3825 351 q 3933 649 3933 591 q 3907 666 3933 664 q 3881 672 3881 668 q 3895 681 3881 681 q 3937 679 3909 681 q 3979 678 3965 678 q 4017 679 3992 678 q 4054 681 4042 681 q 4066 674 4065 681 m 3505 124 q 3491 117 3505 117 q 3432 118 3471 117 q 3374 119 3394 119 q 3327 118 3358 119 q 3280 117 3296 117 q 3265 124 3265 117 q 3282 131 3265 128 q 3304 134 3304 134 q 3326 171 3322 141 q 3329 231 3329 186 l 3330 601 q 3303 663 3330 654 q 3281 667 3292 664 q 3264 675 3264 669 q 3275 681 3264 681 q 3327 679 3293 681 q 3378 678 3361 678 q 3426 679 3395 678 q 3473 681 3457 681 q 3486 675 3486 681 q 3471 667 3486 668 q 3450 664 3461 666 q 3421 608 3421 656 l 3421 193 q 3454 134 3421 145 q 3481 132 3468 133 q 3505 124 3505 130 m 4066 740 l 1836 740 q 1867 797 1867 758 l 4066 797 l 4066 740 m 2998 207 q 2959 115 2998 115 q 2850 117 2922 115 q 2741 119 2778 119 q 2694 118 2725 119 q 2647 117 2663 117 q 2632 124 2632 117 q 2649 131 2632 128 q 2671 134 2661 132 q 2696 188 2696 144 l 2696 606 q 2634 667 2696 667 q 2622 674 2622 667 q 2634 681 2622 681 q 2779 679 2683 681 q 2924 678 2875 678 q 2963 683 2950 678 q 2975 686 2972 686 q 2979 679 2979 686 q 2977 655 2979 670 q 2973 631 2973 637 q 2962 573 2969 573 q 2955 590 2958 573 q 2951 611 2954 601 q 2891 640 2941 640 l 2795 640 q 2791 633 2791 640 l 2791 444 q 2795 438 2791 438 l 2914 438 q 2962 459 2939 438 q 2968 454 2968 458 q 2965 434 2968 448 q 2958 350 2958 391 q 2951 336 2958 336 q 2943 350 2946 336 q 2942 368 2943 359 q 2863 400 2935 400 q 2829 400 2852 400 q 2794 399 2804 399 l 2791 396 l 2791 236 q 2819 164 2791 181 q 2899 155 2838 155 q 2949 164 2933 155 q 2984 219 2973 178 q 2992 230 2986 230 q 2998 207 2998 230 m 2653 406 q 2554 188 2653 269 q 2322 111 2462 111 q 2243 115 2295 111 q 2164 119 2191 119 q 2116 118 2148 119 q 2068 117 2084 117 q 2056 124 2056 117 q 2075 131 2056 128 q 2094 134 2094 134 q 2115 174 2110 141 q 2119 293 2119 206 q 2120 446 2119 344 q 2120 598 2120 547 q 2086 664 2120 654 q 2063 667 2074 666 q 2044 674 2044 669 q 2057 681 2044 681 q 2112 679 2075 681 q 2168 678 2149 678 q 2225 679 2188 678 q 2282 681 2263 681 q 2653 406 2653 681 m 1872 869 l 1775 869 q 1772 865 1772 869 l 1772 861 q 1828 794 1828 825 q 1810 756 1828 772 q 1769 740 1792 740 l 1664 740 l 1664 799 l 1733 799 q 1737 806 1738 799 q 1688 869 1688 837 q 1705 909 1688 891 q 1745 926 1722 926 l 1872 926 l 1872 869 m 1715 740 l 1609 740 q 1529 796 1575 740 l 1529 740 l 1459 740 l 1459 926 l 1591 926 q 1637 907 1617 926 q 1656 863 1656 889 q 1617 806 1656 823 q 1628 799 1622 799 l 1715 799 l 1715 740 m 1447 740 l 1375 740 l 1369 764 l 1316 764 l 1311 740 l 1238 740 l 1287 926 l 1398 926 l 1447 740 m 2063 412 q 1973 195 2063 284 q 1755 106 1884 106 q 1542 190 1628 106 q 1455 399 1455 274 q 1545 608 1455 525 q 1763 690 1635 690 q 1976 617 1892 690 q 2063 412 2063 541 m 4066 0 l 58 0 l 58 57 l 4066 57 l 4066 0 m 1264 926 l 1215 740 l 1135 740 l 1119 802 l 1103 740 l 1023 740 l 976 926 l 1047 926 l 1064 863 l 1080 926 l 1160 926 l 1175 863 l 1192 926 l 1264 926 m 1426 267 q 1362 146 1426 190 q 1225 106 1306 106 q 1115 152 1115 106 l 1115 175 q 1127 269 1115 269 q 1137 245 1132 269 q 1141 218 1139 231 q 1181 163 1150 184 q 1248 142 1212 142 q 1317 167 1286 142 q 1348 228 1348 191 q 1292 337 1348 285 q 1186 427 1240 382 q 1130 550 1130 484 q 1185 654 1130 613 q 1302 690 1236 690 q 1363 685 1325 690 q 1412 669 1412 678 q 1410 620 1412 653 q 1409 573 1409 588 q 1400 558 1409 558 q 1392 571 1392 558 q 1374 620 1392 596 q 1293 656 1346 656 q 1231 634 1259 656 q 1204 580 1204 612 q 1262 487 1204 537 q 1368 395 1315 441 q 1426 267 1426 334 m 931 740 l 815 740 q 735 796 781 740 l 735 740 l 666 740 l 666 926 l 799 926 q 844 907 824 926 q 863 863 863 889 q 823 806 863 823 q 836 799 828 799 l 931 799 l 931 740 m 654 740 l 582 740 l 576 764 l 523 764 l 516 740 l 444 740 l 493 926 l 605 926 l 654 740 m 1084 124 q 1069 117 1084 117 q 1012 118 1050 117 q 954 119 973 119 q 907 118 938 119 q 860 117 876 117 q 845 124 845 117 q 862 131 845 128 q 884 134 874 132 q 909 188 909 144 l 909 615 q 882 663 909 654 q 860 666 872 664 q 844 675 844 669 q 854 681 844 681 q 906 679 872 681 q 958 678 941 678 q 1006 679 975 678 q 1053 681 1037 681 q 1065 675 1065 681 q 1050 667 1065 668 q 1030 664 1041 666 q 1000 604 1000 656 l 1000 196 q 1071 131 1000 131 q 1084 124 1084 131 m 462 869 l 398 869 l 398 740 l 328 740 l 328 869 l 264 869 l 264 926 l 462 926 l 462 869 m 856 549 q 799 419 856 469 q 661 369 742 369 q 648 376 648 369 q 664 384 648 384 q 707 396 685 384 q 770 507 770 428 q 733 606 770 565 q 640 648 697 648 q 616 631 616 648 l 616 205 q 648 134 616 145 q 676 131 662 133 q 698 124 698 128 q 684 117 698 117 q 626 118 664 117 q 568 119 588 119 q 521 118 552 119 q 475 117 491 117 q 459 124 459 117 q 477 131 459 128 q 499 134 488 133 q 524 193 524 144 l 524 605 q 491 664 524 655 q 468 667 479 666 q 449 674 449 669 q 462 681 449 681 q 517 679 480 681 q 573 678 554 678 q 627 679 591 678 q 681 681 662 681 q 799 650 751 681 q 856 549 856 615 m 299 869 l 225 869 q 220 863 220 869 q 256 833 237 848 q 275 794 275 815 q 258 756 275 772 q 218 740 240 740 l 58 740 l 58 799 l 182 799 q 186 806 188 799 q 137 869 137 836 q 154 909 137 891 q 193 926 171 926 l 299 926 l 299 869 m 434 199 q 397 115 434 115 q 288 117 360 115 q 178 119 215 119 q 131 118 162 119 q 84 117 101 117 q 69 124 69 117 q 87 131 69 128 q 108 134 97 133 q 133 198 133 144 l 133 606 q 71 667 133 667 q 58 674 58 667 q 71 681 58 681 q 214 679 118 681 q 358 678 310 678 q 399 683 385 678 q 412 686 410 686 q 417 679 417 686 q 414 655 417 670 q 410 631 411 637 q 406 582 410 615 q 399 573 404 573 q 392 590 396 573 q 388 611 390 601 q 325 640 376 640 l 231 640 q 227 633 227 640 l 227 444 q 231 438 227 438 l 350 438 q 399 459 377 438 q 405 454 405 458 q 402 434 405 449 q 395 350 395 404 q 388 336 395 336 q 381 350 383 336 q 378 368 380 359 q 301 400 370 400 q 265 400 289 400 q 230 399 241 399 l 227 396 l 227 243 q 244 175 227 194 q 308 155 260 155 l 346 155 q 398 180 383 155 q 428 230 413 205 q 434 199 434 222 m 2553 384 q 2463 582 2553 512 q 2251 646 2382 646 q 2212 615 2212 646 l 2212 255 q 2234 169 2212 192 q 2319 146 2257 146 q 2493 208 2433 146 q 2553 384 2553 270 m 1587 861 q 1573 875 1587 875 l 1529 875 l 1529 847 l 1573 847 q 1587 861 1587 847 m 1358 810 l 1343 863 l 1329 810 l 1358 810 m 1958 384 q 1904 567 1958 490 q 1741 655 1841 655 q 1600 582 1649 655 q 1558 422 1558 519 q 1616 233 1558 314 q 1786 144 1681 144 q 1920 223 1874 144 q 1958 384 1958 289 m 794 861 q 779 875 794 875 l 735 875 l 735 847 l 779 847 q 794 861 794 847 m 564 810 l 549 863 l 535 810 l 564 810 z "},"5":{"ha":3936,"x_min":58,"x_max":3878,"o":"m 3878 674 q 3858 664 3878 671 q 3831 657 3832 657 q 3789 591 3809 647 q 3694 377 3765 522 q 3602 161 3626 240 q 3567 106 3584 106 q 3547 125 3556 106 q 3538 153 3543 139 l 3351 608 q 3293 663 3331 655 q 3256 674 3256 671 q 3269 681 3256 681 q 3326 679 3288 681 q 3384 678 3365 678 q 3432 679 3400 678 q 3480 681 3464 681 q 3492 674 3492 681 q 3468 666 3492 670 q 3444 646 3444 661 q 3462 588 3444 633 l 3590 251 l 3593 251 q 3685 450 3639 351 q 3747 649 3747 593 q 3720 666 3747 664 q 3694 672 3694 668 q 3708 681 3694 681 q 3751 679 3722 681 q 3793 678 3779 678 q 3829 679 3806 678 q 3866 681 3853 681 q 3878 674 3878 681 m 3878 740 l 1836 740 q 1866 797 1866 758 l 3878 797 l 3878 740 m 2998 206 q 2959 115 2998 115 q 2850 117 2922 115 q 2741 119 2778 119 q 2694 118 2725 119 q 2647 117 2663 117 q 2632 124 2632 117 q 2649 131 2632 128 q 2670 134 2660 133 q 2696 190 2696 144 l 2696 608 q 2633 667 2696 667 q 2620 674 2620 667 q 2634 681 2620 681 q 2780 679 2683 681 q 2925 678 2876 678 q 2963 683 2950 678 q 2975 686 2972 686 q 2979 679 2979 686 q 2977 655 2979 670 q 2972 631 2973 637 q 2969 582 2972 615 q 2962 573 2966 573 q 2955 590 2958 573 q 2950 611 2953 601 q 2891 640 2939 640 l 2794 640 q 2789 633 2789 640 l 2789 444 q 2794 438 2789 438 l 2909 438 q 2962 459 2938 438 q 2968 454 2968 458 q 2965 434 2968 448 q 2957 345 2957 385 q 2951 336 2957 336 q 2944 350 2947 336 q 2942 368 2943 359 q 2863 400 2934 400 q 2829 399 2852 400 q 2794 399 2806 399 q 2789 392 2789 399 l 2789 236 q 2819 164 2789 181 q 2900 155 2838 155 q 2949 164 2933 155 q 2983 219 2973 178 q 2991 230 2985 230 q 2998 206 2998 230 m 2653 406 q 2553 188 2653 270 q 2322 111 2461 111 q 2242 115 2295 111 q 2163 119 2190 119 q 2115 118 2147 119 q 2067 117 2083 117 q 2054 124 2054 117 q 2072 131 2054 128 q 2094 134 2094 134 q 2115 175 2110 141 q 2118 293 2118 199 q 2118 447 2118 344 q 2119 601 2119 550 q 2086 664 2119 655 q 2063 667 2074 666 q 2044 674 2044 669 q 2057 681 2044 681 q 2112 679 2075 681 q 2168 678 2149 678 q 2226 679 2188 678 q 2282 681 2264 681 q 2653 406 2653 681 m 1870 869 l 1775 869 q 1771 863 1771 869 l 1772 861 q 1826 794 1826 826 q 1808 756 1826 772 q 1769 740 1791 740 l 1664 740 l 1664 799 l 1733 799 q 1737 804 1737 799 q 1704 834 1721 818 q 1686 869 1686 850 q 1704 909 1686 892 q 1745 926 1722 926 l 1870 926 l 1870 869 m 1714 740 l 1608 740 q 1529 796 1575 740 l 1529 740 l 1458 740 l 1458 926 l 1591 926 q 1637 907 1617 926 q 1656 863 1656 889 q 1617 806 1656 823 q 1628 799 1622 799 l 1714 799 l 1714 740 m 1447 740 l 1375 740 l 1369 764 l 1316 764 l 1310 740 l 1237 740 l 1287 926 l 1398 926 l 1447 740 m 2063 412 q 1973 194 2063 282 q 1755 106 1884 106 q 1542 191 1631 106 q 1454 399 1454 275 q 1544 608 1454 525 q 1762 690 1634 690 q 1975 617 1891 690 q 2063 412 2063 541 m 3878 0 l 58 0 l 58 57 l 3878 57 l 3878 0 m 1264 926 l 1215 740 l 1135 740 l 1119 802 l 1103 740 l 1023 740 l 975 926 l 1046 926 l 1064 863 l 1079 926 l 1159 926 l 1175 863 l 1191 926 l 1264 926 m 1426 267 q 1361 145 1426 189 q 1222 106 1306 106 q 1113 152 1113 106 q 1116 204 1113 169 q 1118 257 1118 240 q 1126 269 1118 269 q 1140 218 1126 269 q 1180 163 1149 184 q 1247 142 1211 142 q 1316 167 1285 142 q 1347 228 1347 191 q 1291 337 1347 284 q 1186 427 1238 382 q 1130 550 1130 484 q 1185 654 1130 613 q 1302 690 1236 690 q 1362 685 1325 690 q 1411 669 1411 678 q 1410 620 1411 653 q 1409 573 1409 588 q 1400 558 1409 558 q 1392 571 1392 558 q 1374 620 1392 596 q 1292 656 1346 656 q 1231 634 1258 656 q 1204 580 1204 612 q 1262 487 1204 537 q 1368 395 1315 441 q 1426 267 1426 334 m 931 740 l 815 740 q 735 796 781 740 l 735 740 l 666 740 l 666 926 l 797 926 q 843 907 823 926 q 863 863 863 889 q 823 806 863 823 q 834 799 828 799 l 931 799 l 931 740 m 654 740 l 582 740 l 575 764 l 522 764 l 516 740 l 444 740 l 492 926 l 604 926 l 654 740 m 1083 124 q 1069 117 1083 117 q 1012 118 1050 117 q 954 119 973 119 q 907 118 938 119 q 860 117 876 117 q 845 124 845 117 q 862 131 845 128 q 883 134 873 133 q 909 196 909 144 l 909 616 q 882 663 909 654 q 860 667 870 664 q 843 675 843 669 q 854 681 843 681 q 906 679 872 681 q 957 678 940 678 q 1005 679 973 678 q 1052 681 1036 681 q 1064 675 1064 681 q 1049 667 1064 668 q 1029 664 1039 666 q 1000 608 1000 656 l 1000 194 q 1071 131 1000 131 q 1083 124 1083 131 m 462 869 l 398 869 l 398 740 l 328 740 l 328 869 l 264 869 l 264 926 l 462 926 l 462 869 m 855 549 q 799 419 855 469 q 661 369 742 369 q 648 376 648 369 q 664 384 648 384 q 707 396 685 384 q 769 507 769 429 q 733 606 769 565 q 640 648 697 648 q 615 631 615 648 l 615 207 q 648 134 615 146 q 676 131 662 133 q 698 124 698 128 q 684 117 698 117 q 626 118 664 117 q 568 119 588 119 q 521 118 552 119 q 475 117 491 117 q 459 124 459 117 q 477 131 459 127 q 498 134 487 132 q 524 212 524 144 l 524 604 q 490 664 524 655 q 466 667 478 666 q 448 674 448 669 q 462 681 448 681 q 517 679 480 681 q 572 678 553 678 q 626 679 590 678 q 681 681 662 681 q 799 650 750 681 q 855 549 855 615 m 299 869 q 243 870 253 870 q 219 863 226 870 q 255 833 237 848 q 275 794 275 815 q 258 756 275 772 q 216 740 240 740 l 58 740 l 58 799 l 182 799 q 186 804 186 799 q 153 834 170 818 q 135 869 135 850 q 153 909 135 891 q 193 926 170 926 l 299 926 l 299 869 m 434 203 q 396 115 434 115 q 286 117 359 115 q 177 119 214 119 q 130 118 161 119 q 83 117 100 117 q 68 124 68 117 q 86 131 68 127 q 108 134 108 134 q 132 188 132 144 l 132 608 q 71 667 132 667 q 58 674 58 667 q 71 681 58 681 q 215 679 119 681 q 360 678 311 678 q 399 683 387 678 q 411 686 409 686 q 416 679 416 686 q 413 655 416 670 q 410 631 410 637 q 398 573 405 573 q 391 590 395 573 q 388 611 390 601 q 325 640 377 640 l 231 640 q 227 633 227 640 l 227 444 q 231 438 227 438 l 347 438 q 398 459 374 438 q 404 454 404 458 q 402 434 404 448 q 395 350 395 391 q 388 336 395 336 q 380 350 382 336 q 378 368 380 359 q 300 400 372 400 q 265 400 288 400 q 230 399 241 399 l 227 396 l 227 236 q 245 172 227 189 q 313 155 264 155 q 385 168 373 155 q 428 230 407 199 q 434 203 434 223 m 2553 384 q 2469 579 2553 507 q 2265 646 2390 646 q 2222 637 2234 646 q 2211 595 2211 627 l 2211 258 q 2231 168 2211 190 q 2319 146 2251 146 q 2493 208 2433 146 q 2553 384 2553 270 m 1587 861 q 1572 875 1587 875 l 1529 875 l 1529 847 l 1572 847 q 1587 861 1587 847 m 1356 810 l 1343 863 l 1329 810 l 1356 810 m 1958 384 q 1904 567 1958 490 q 1741 655 1841 655 q 1600 582 1649 655 q 1558 422 1558 519 q 1616 233 1558 314 q 1786 144 1681 144 q 1920 223 1874 144 q 1958 384 1958 289 m 793 861 q 779 875 793 875 l 735 875 l 735 847 l 779 847 q 793 861 793 847 m 563 810 l 549 863 l 535 810 l 563 810 z "},"6":{"ha":4142,"x_min":58,"x_max":4084,"o":"m 4084 124 q 4071 117 4084 117 q 4012 118 4051 117 q 3954 119 3973 119 q 3907 118 3938 119 q 3860 117 3876 117 q 3846 124 3846 117 q 3863 131 3846 128 q 3884 134 3874 133 q 3910 189 3910 144 l 3910 616 q 3883 663 3910 654 q 3861 667 3872 664 q 3844 675 3844 669 q 3855 681 3844 681 q 3907 679 3873 681 q 3958 678 3941 678 q 4006 679 3975 678 q 4053 681 4037 681 q 4066 675 4066 681 q 4051 667 4066 668 q 4031 664 4042 666 q 4001 608 4001 656 l 4001 196 q 4072 131 4001 131 q 4084 124 4084 131 m 3880 674 q 3831 657 3863 669 q 3791 591 3811 647 q 3696 376 3765 522 q 3602 161 3628 238 q 3567 106 3583 106 q 3549 125 3556 106 q 3539 153 3544 139 l 3351 608 q 3293 663 3331 655 q 3256 674 3256 671 q 3270 681 3256 681 q 3327 679 3289 681 q 3384 678 3365 678 q 3432 679 3400 678 q 3480 681 3464 681 q 3492 674 3492 681 q 3468 666 3492 670 q 3444 646 3444 661 q 3462 588 3444 633 l 3590 251 l 3593 251 q 3685 450 3639 351 q 3747 649 3747 591 q 3720 666 3747 664 q 3694 672 3694 668 q 3708 681 3694 681 q 3751 679 3722 681 q 3793 678 3779 678 q 3830 679 3806 678 q 3868 681 3855 681 q 3880 674 3878 681 m 4084 740 l 1836 740 q 1866 797 1866 758 l 4084 797 l 4084 740 m 2998 205 q 2959 115 2998 115 q 2850 117 2922 115 q 2741 119 2778 119 q 2694 118 2725 119 q 2647 117 2663 117 q 2632 124 2632 117 q 2649 131 2632 128 q 2670 134 2660 133 q 2696 188 2696 144 l 2696 611 q 2633 667 2696 667 q 2620 674 2620 667 q 2634 681 2620 681 q 2780 679 2683 681 q 2925 678 2876 678 q 2963 683 2950 678 q 2975 686 2972 686 q 2979 679 2979 686 q 2976 661 2979 677 q 2973 612 2975 637 q 2962 573 2971 573 q 2955 590 2958 573 q 2951 611 2954 601 q 2892 640 2941 640 l 2794 640 q 2789 633 2789 640 l 2789 444 q 2794 438 2789 438 l 2913 438 q 2962 459 2939 438 q 2968 454 2968 458 q 2965 434 2968 448 q 2958 350 2958 391 q 2951 336 2958 336 q 2944 350 2947 336 q 2942 368 2943 359 q 2863 400 2934 400 q 2829 399 2852 400 q 2794 399 2806 399 q 2789 392 2789 399 l 2789 236 q 2816 166 2789 182 q 2894 155 2834 155 q 2949 164 2932 155 q 2984 219 2978 179 q 2991 230 2986 230 q 2998 205 2998 230 m 2653 406 q 2553 188 2653 270 q 2322 111 2461 111 q 2243 115 2295 111 q 2164 119 2191 119 q 2116 118 2148 119 q 2067 117 2083 117 q 2054 124 2054 117 q 2072 131 2054 128 q 2094 134 2083 133 q 2119 222 2119 144 l 2119 596 q 2086 664 2119 656 q 2063 667 2074 666 q 2044 674 2044 669 q 2057 681 2044 681 q 2112 679 2075 681 q 2168 678 2149 678 q 2225 679 2188 678 q 2282 681 2263 681 q 2653 406 2653 681 m 1872 869 l 1775 869 q 1772 865 1772 869 l 1772 861 q 1826 794 1826 826 q 1808 756 1826 772 q 1769 740 1791 740 l 1664 740 l 1664 799 l 1733 799 q 1737 806 1738 799 q 1688 869 1688 837 q 1705 909 1688 891 q 1745 926 1722 926 l 1872 926 l 1872 869 m 1714 740 l 1608 740 q 1529 796 1575 740 l 1529 740 l 1458 740 l 1458 926 l 1591 926 q 1637 907 1617 926 q 1656 863 1656 889 q 1617 806 1656 823 q 1628 799 1622 799 l 1714 799 l 1714 740 m 1447 740 l 1375 740 l 1369 764 l 1316 764 l 1310 740 l 1238 740 l 1287 926 l 1398 926 l 1447 740 m 2063 412 q 1973 194 2063 282 q 1755 106 1884 106 q 1542 191 1631 106 q 1454 399 1454 275 q 1546 609 1454 524 q 1762 690 1635 690 q 1975 617 1891 690 q 2063 412 2063 541 m 4084 0 l 58 0 l 58 57 l 4084 57 l 4084 0 m 1264 926 l 1215 740 l 1135 740 l 1119 802 l 1103 740 l 1023 740 l 975 926 l 1046 926 l 1064 863 l 1079 926 l 1159 926 l 1175 863 l 1191 926 l 1264 926 m 1426 267 q 1362 145 1426 190 q 1225 106 1306 106 q 1113 152 1113 106 q 1116 204 1113 169 q 1118 257 1118 240 q 1126 269 1118 269 q 1133 256 1133 269 q 1168 177 1133 212 q 1248 142 1203 142 q 1316 167 1285 142 q 1347 228 1347 192 q 1291 337 1347 285 q 1186 427 1238 382 q 1130 550 1130 484 q 1185 654 1130 613 q 1302 690 1236 690 q 1363 685 1325 690 q 1412 669 1412 678 q 1410 640 1412 668 q 1409 572 1409 626 q 1400 558 1409 558 q 1392 571 1392 558 q 1374 620 1392 597 q 1293 656 1345 656 q 1231 634 1259 656 q 1204 580 1204 612 q 1262 487 1204 537 q 1368 395 1315 441 q 1426 267 1426 334 m 931 740 l 815 740 q 735 796 781 740 l 735 740 l 666 740 l 666 926 l 799 926 q 844 907 824 926 q 863 863 863 889 q 823 806 863 823 q 836 799 828 799 l 931 799 l 931 740 m 654 740 l 582 740 l 575 764 l 523 764 l 516 740 l 444 740 l 493 926 l 605 926 l 654 740 m 1084 124 q 1069 117 1084 117 q 1012 118 1050 117 q 954 119 973 119 q 907 118 938 119 q 860 117 876 117 q 845 124 845 117 q 862 131 845 128 q 883 134 873 133 q 909 186 909 144 l 909 615 q 882 663 909 654 q 860 666 872 664 q 844 675 844 669 q 854 681 844 681 q 906 679 872 681 q 957 678 940 678 q 1005 679 973 678 q 1053 681 1037 681 q 1064 675 1064 681 q 1049 667 1064 668 q 1029 664 1039 666 q 1000 609 1000 656 l 1000 193 q 1069 131 1000 131 q 1084 124 1084 131 m 462 869 l 398 869 l 398 740 l 328 740 l 328 869 l 264 869 l 264 926 l 462 926 l 462 869 m 855 549 q 799 419 855 469 q 661 369 742 369 q 648 376 648 369 q 664 384 648 384 q 707 396 685 384 q 769 507 769 428 q 733 606 769 565 q 640 648 697 648 q 615 631 615 648 l 616 248 q 619 174 616 189 q 648 134 626 141 q 676 131 662 133 q 698 124 698 128 q 684 117 698 117 q 626 118 664 117 q 568 119 588 119 q 521 118 552 119 q 475 117 491 117 q 459 124 459 117 q 477 131 459 127 q 498 134 487 132 q 524 198 524 145 l 524 605 q 491 664 524 654 q 466 667 479 666 q 448 674 448 669 q 462 681 448 681 q 517 679 480 681 q 573 678 554 678 q 627 679 591 678 q 681 681 662 681 q 799 650 750 681 q 855 549 855 615 m 299 869 l 225 869 q 220 863 220 869 q 256 833 237 848 q 275 794 275 815 q 258 756 275 772 q 218 740 240 740 l 58 740 l 58 799 l 182 799 q 186 804 186 799 q 153 834 170 818 q 135 869 135 850 q 153 909 135 891 q 193 926 170 926 l 299 926 l 299 869 m 434 201 q 396 115 434 115 q 287 117 360 115 q 178 119 214 119 q 131 118 162 119 q 83 117 100 117 q 68 124 68 117 q 86 131 68 127 q 108 134 97 132 q 133 199 133 144 l 133 604 q 71 667 133 667 q 58 674 58 667 q 71 681 58 681 q 216 679 119 681 q 361 678 313 678 q 399 683 387 678 q 411 686 409 686 q 417 679 417 686 q 414 655 417 670 q 410 631 411 637 q 406 582 410 615 q 399 573 404 573 q 391 589 395 573 q 388 611 389 601 q 328 640 378 640 l 231 640 q 227 633 227 640 l 227 444 q 231 438 227 438 l 340 438 q 399 459 374 438 q 404 454 404 458 q 402 434 404 448 q 395 350 395 391 q 388 336 395 336 q 380 350 381 336 q 378 368 380 359 q 309 400 372 400 q 270 400 295 400 q 230 399 241 399 l 227 396 l 227 243 q 244 172 227 189 q 316 155 262 155 q 389 169 377 155 q 428 230 409 199 q 434 201 434 223 m 2553 384 q 2469 579 2553 507 q 2265 646 2390 646 q 2222 637 2234 646 q 2211 595 2211 627 l 2211 258 q 2231 168 2211 190 q 2319 146 2251 146 q 2493 208 2433 146 q 2553 384 2553 270 m 1587 861 q 1573 875 1587 875 l 1529 875 l 1529 847 l 1573 847 q 1587 861 1587 847 m 1358 810 l 1343 863 l 1329 810 l 1358 810 m 1958 384 q 1904 567 1958 490 q 1741 655 1841 655 q 1600 582 1649 655 q 1558 422 1558 519 q 1616 233 1558 314 q 1786 144 1681 144 q 1920 223 1874 144 q 1958 384 1958 289 m 794 861 q 779 875 794 875 l 735 875 l 735 847 l 779 847 q 794 861 794 847 m 563 810 l 549 863 l 535 810 l 563 810 z "},"7":{"ha":2277,"x_min":58,"x_max":2219,"o":"m 2219 477 l 1938 477 q 1825 534 1883 477 l 1747 611 l 1747 477 l 1579 477 l 1579 926 l 1898 926 q 2008 881 1959 926 q 2056 774 2056 836 q 2028 692 2056 730 q 1959 635 2001 653 q 1988 617 1970 617 l 2219 617 l 2219 477 m 1551 477 l 1376 477 l 1362 534 l 1234 534 l 1220 477 l 1045 477 l 1163 926 l 1433 926 l 1551 477 m 2219 309 l 1990 309 q 1978 295 1978 309 q 2013 267 1978 294 q 2078 207 2054 235 q 2112 128 2112 166 q 2068 38 2112 75 q 1971 0 2024 0 l 1584 0 q 1472 56 1528 0 l 1394 134 l 1394 0 l 1226 0 l 1226 449 l 1545 449 q 1655 403 1606 449 q 1703 297 1703 358 q 1675 215 1703 253 q 1605 159 1647 176 q 1634 140 1615 140 l 1885 140 q 1897 154 1897 140 l 1895 157 q 1775 313 1775 231 q 1818 408 1775 367 q 1916 449 1861 449 l 2219 449 l 2219 309 m 1088 786 l 933 786 l 933 477 l 765 477 l 765 786 l 516 786 q 506 773 506 786 q 541 744 506 771 q 604 684 582 711 q 639 605 639 642 q 595 514 639 552 q 498 477 551 477 l 58 477 l 58 617 l 413 617 q 424 631 424 617 q 422 634 424 632 l 346 690 q 302 789 302 722 q 345 885 302 844 q 442 926 388 926 l 1088 926 l 1088 786 m 1197 0 l 1023 0 l 1008 56 l 881 56 l 866 0 l 692 0 l 810 449 l 1080 449 l 1197 0 m 753 449 l 637 0 l 446 0 l 406 149 l 367 0 l 176 0 l 58 449 l 231 449 l 271 299 l 310 449 l 501 449 l 541 299 l 580 449 l 753 449 m 1888 769 q 1854 802 1888 802 l 1747 802 l 1747 735 l 1854 735 q 1888 769 1888 735 m 1332 646 l 1299 775 l 1264 646 l 1332 646 m 1534 292 q 1500 325 1534 325 l 1394 325 l 1394 258 l 1500 258 q 1534 292 1534 258 m 979 168 l 944 299 l 911 168 l 979 168 z "},"8":{"ha":2052,"x_min":58,"x_max":1994,"o":"m 1734 520 l 1565 520 l 1432 692 l 1494 520 l 1339 520 l 1244 926 l 1465 926 q 1534 878 1498 926 q 1617 723 1617 767 q 1582 688 1617 697 l 1734 520 m 1994 45 q 1924 0 1994 0 l 1618 0 q 1543 53 1558 0 l 1502 192 l 1667 192 q 1715 140 1677 140 q 1744 155 1744 140 q 1715 205 1744 188 q 1657 221 1691 221 q 1616 219 1644 221 q 1574 218 1588 218 q 1484 258 1515 218 q 1446 359 1469 278 q 1424 469 1424 440 q 1464 500 1424 500 l 1697 500 q 1772 463 1752 500 l 1830 356 l 1657 356 q 1611 390 1646 390 q 1594 381 1594 390 q 1607 348 1594 362 q 1639 333 1620 333 l 1794 333 q 1899 242 1846 333 q 1969 104 1934 172 q 1994 45 1994 59 m 1561 0 l 1370 0 l 1255 204 l 1279 0 l 1098 0 l 1090 500 l 1355 500 q 1438 397 1402 500 q 1466 253 1466 313 q 1448 223 1466 234 q 1409 215 1429 213 l 1561 0 m 1321 520 l 1176 520 l 1168 593 l 1095 593 l 1072 520 l 781 520 l 858 839 l 692 839 q 656 814 656 839 q 701 801 656 802 q 756 802 649 802 q 821 771 821 802 q 818 757 821 766 l 772 568 q 690 520 760 520 l 435 520 q 380 551 380 520 q 402 617 380 581 q 443 674 422 645 l 595 674 q 587 646 587 661 q 608 635 587 635 q 642 653 628 635 q 655 692 655 671 q 631 703 655 703 l 531 703 q 483 733 483 703 q 514 815 483 757 q 563 890 541 866 q 624 926 594 926 l 1078 926 l 1043 839 l 984 839 l 944 568 l 1090 926 l 1231 926 l 1321 520 m 1078 0 l 914 0 l 920 97 l 832 97 l 766 0 l 595 0 l 904 500 l 1074 500 l 1078 0 m 882 500 l 571 0 l 397 0 l 447 240 l 253 0 l 58 0 l 345 500 l 466 500 l 360 291 l 550 500 l 649 500 l 602 291 l 750 500 l 882 500 m 1441 810 q 1410 838 1441 838 q 1383 836 1410 838 l 1395 801 q 1419 799 1414 799 q 1441 810 1441 799 m 1160 683 l 1150 758 l 1125 683 l 1160 683 m 1293 356 q 1260 387 1293 387 q 1229 384 1260 387 l 1236 340 q 1265 339 1258 339 q 1293 356 1293 339 m 932 277 l 883 192 l 927 192 l 932 277 z "},"9":{"ha":2616,"x_min":58,"x_max":2558,"o":"m 2558 381 l 2162 381 l 2162 778 l 2558 778 l 2558 654 l 2310 654 l 2310 631 l 2459 631 l 2459 528 l 2310 528 l 2310 505 l 2558 505 l 2558 381 m 2558 826 l 1500 826 l 1500 926 l 2558 926 l 2558 826 m 2558 148 l 2503 148 q 2416 211 2468 148 l 2416 148 l 2338 148 l 2338 356 l 2416 356 l 2416 288 l 2463 356 l 2558 356 l 2483 248 q 2558 213 2514 211 l 2558 148 m 2112 381 l 2009 381 q 1910 431 1959 381 l 1840 500 l 1840 381 l 1692 381 l 1692 778 l 1975 778 q 2070 737 2028 778 q 2112 644 2112 697 q 2089 570 2112 604 q 2028 521 2065 536 q 2087 503 2046 503 q 2112 505 2098 503 l 2112 381 m 2311 148 l 2227 148 q 2150 179 2184 148 q 2117 252 2117 211 q 2150 325 2117 294 q 2227 356 2184 356 l 2311 356 l 2311 292 l 2227 292 q 2200 280 2212 292 q 2188 252 2188 267 q 2200 225 2188 237 q 2227 213 2212 213 l 2311 213 l 2311 148 m 1476 826 l 1376 826 l 1376 926 l 1476 926 l 1476 895 l 1413 895 l 1413 889 l 1450 889 l 1450 863 l 1413 863 l 1413 858 l 1476 858 l 1476 826 m 2117 148 l 2036 148 l 2029 175 l 1970 175 l 1963 148 l 1882 148 l 1938 356 l 2063 356 l 2117 148 m 1365 826 l 1326 826 l 1326 863 l 1295 863 l 1295 826 l 1258 826 l 1258 926 l 1295 926 l 1295 889 l 1326 889 l 1326 926 l 1365 926 l 1365 826 m 1642 381 l 1494 381 l 1494 778 l 1642 778 l 1642 381 m 1247 895 l 1212 895 l 1212 826 l 1175 826 l 1175 895 l 1141 895 l 1141 926 l 1247 926 l 1247 895 m 1877 209 q 1855 166 1877 183 q 1804 148 1832 148 l 1656 148 l 1656 356 l 1792 356 q 1842 339 1819 356 q 1865 295 1865 322 q 1852 258 1865 274 q 1877 209 1877 240 m 1444 639 q 1402 542 1444 584 q 1306 500 1360 500 l 1172 500 l 1172 381 l 1023 381 l 1023 778 l 1306 778 q 1402 736 1360 778 q 1444 639 1444 693 m 1579 292 l 1495 292 q 1491 285 1490 292 q 1530 251 1510 269 q 1553 207 1553 230 q 1533 166 1553 183 q 1487 148 1513 148 l 1370 148 l 1370 213 l 1448 213 q 1454 220 1454 213 q 1416 251 1435 235 q 1397 293 1397 267 q 1417 337 1397 318 q 1462 356 1436 356 l 1579 356 l 1579 292 m 1345 148 l 1137 148 l 1137 356 l 1345 356 l 1345 292 l 1214 292 l 1214 280 l 1293 280 l 1293 226 l 1214 226 l 1214 213 l 1345 213 l 1345 148 m 2558 0 l 58 0 l 58 100 l 2558 100 l 2558 0 m 973 381 l 825 381 l 825 505 l 738 381 l 652 505 l 652 381 l 503 381 l 503 778 l 652 778 l 738 654 l 825 778 l 973 778 l 973 381 m 1110 148 l 1056 148 q 968 211 1021 148 l 968 148 l 890 148 l 890 356 l 968 356 l 968 288 l 1015 356 l 1110 356 l 1035 248 q 1110 213 1066 211 l 1110 148 m 1117 826 l 256 826 l 256 778 l 454 778 l 454 604 l 256 604 l 256 554 l 454 554 l 454 381 l 58 381 l 58 926 l 1117 926 l 1117 826 m 863 148 l 786 148 l 786 356 l 863 356 l 863 148 m 759 148 l 705 148 q 617 211 671 148 l 617 148 l 538 148 l 538 356 l 686 356 q 737 335 715 356 q 759 286 759 314 q 715 222 759 241 q 759 213 729 207 l 759 148 m 513 292 l 441 292 l 441 148 l 363 148 l 363 292 l 292 292 l 292 356 l 513 356 l 513 292 m 266 292 l 183 292 q 178 284 176 292 q 240 207 240 243 q 219 166 240 183 q 175 148 199 148 l 58 148 l 58 213 q 87 212 67 213 q 117 212 106 212 q 140 221 141 212 q 83 293 83 256 q 104 337 83 318 q 149 356 124 356 l 266 356 l 266 292 m 1964 639 q 1934 669 1964 669 l 1840 669 l 1840 609 l 1934 609 q 1964 639 1964 609 m 2016 227 l 2000 287 l 1984 227 l 2016 227 m 1796 288 q 1781 304 1796 304 l 1729 304 l 1729 273 l 1781 273 q 1796 288 1796 273 m 1800 216 q 1784 231 1800 231 l 1729 231 l 1729 200 l 1784 200 q 1800 216 1800 200 m 1295 639 q 1266 669 1295 669 l 1172 669 l 1172 609 l 1266 609 q 1295 639 1295 609 m 682 284 q 666 299 682 299 l 617 299 l 617 267 l 666 267 q 682 284 682 267 z "}," ":{"ha":694,"x_min":0,"x_max":0,"o":""},"!":{"ha":984,"x_min":29,"x_max":955,"o":"m 955 469 q 819 139 955 278 q 492 0 683 0 q 165 139 301 0 q 29 469 29 278 q 95 700 29 591 q 271 870 162 809 q 166 635 166 766 q 208 475 166 544 q 344 391 258 391 q 424 459 397 391 q 444 573 444 510 q 413 700 444 642 q 318 788 378 764 l 370 851 q 441 777 416 823 l 441 780 q 407 896 441 841 l 492 997 l 576 896 q 543 777 543 841 q 613 851 568 823 l 666 788 q 571 700 605 764 q 539 573 539 642 q 560 459 539 510 q 640 391 587 391 q 775 475 726 391 q 818 635 818 544 q 713 870 818 766 q 888 701 822 810 q 955 469 955 591 z "},"\"":{"ha":1127,"x_min":29,"x_max":1098,"o":"m 1098 823 l 29 823 l 29 926 l 1098 926 l 1098 823 m 1098 124 l 770 124 l 770 453 l 1098 453 l 1098 350 l 892 350 l 892 331 l 1016 331 l 1016 245 l 892 245 l 892 227 l 1098 227 l 1098 124 m 522 473 l 399 473 q 374 566 397 527 q 296 617 345 615 l 296 473 l 172 473 l 172 802 l 175 802 q 399 699 331 802 l 399 802 l 522 802 l 522 473 m 749 124 l 625 124 l 625 245 l 522 245 l 522 124 l 399 124 l 399 453 l 522 453 l 522 331 l 625 331 l 625 453 l 749 453 l 749 124 m 153 473 l 29 473 l 29 802 l 153 802 l 153 473 m 1098 0 l 29 0 l 29 103 l 1098 103 l 1098 0 m 378 350 l 265 350 l 265 124 l 142 124 l 142 350 l 29 350 l 29 453 l 378 453 l 378 350 z "},"#":{"ha":984,"x_min":29,"x_max":955,"o":"m 955 464 q 817 139 955 279 q 493 0 678 0 q 167 138 304 0 q 29 464 29 275 q 167 788 29 649 q 490 926 304 926 q 817 789 678 926 q 955 464 955 652 m 819 704 q 535 868 712 848 l 535 839 q 611 822 574 834 l 597 782 q 721 709 615 774 l 750 740 q 795 688 774 715 l 819 704 m 898 463 q 862 630 898 547 l 838 616 q 861 539 853 579 l 819 531 q 825 483 825 507 q 818 389 825 476 l 860 378 q 838 314 853 345 l 863 299 q 898 463 898 378 m 449 839 l 449 869 q 164 704 272 850 l 189 690 q 241 747 212 720 l 270 715 q 395 785 317 752 l 382 826 q 449 839 414 836 m 756 553 q 704 642 740 601 l 605 560 q 522 611 573 600 l 547 736 q 492 742 520 742 q 443 738 466 742 l 466 612 q 380 563 416 602 l 284 648 q 231 560 249 609 l 351 516 q 343 464 343 491 q 350 416 343 439 l 228 376 q 280 286 245 326 l 376 368 q 462 317 411 328 l 436 192 q 492 186 464 186 q 541 191 516 186 l 517 317 q 604 366 568 326 l 700 280 q 752 369 734 318 l 633 413 q 641 463 641 438 q 633 512 641 488 l 756 553 m 819 225 l 795 240 q 743 183 772 208 l 714 214 q 589 144 652 156 l 602 104 q 535 90 568 94 l 535 61 q 819 225 713 80 m 166 539 l 124 550 q 146 616 132 583 l 122 630 q 86 463 86 550 q 120 299 86 378 l 146 314 q 122 389 130 351 l 164 397 q 157 464 157 429 q 166 539 157 497 m 449 60 l 449 90 q 373 105 410 95 l 387 147 q 264 220 317 170 l 263 220 l 234 188 q 189 240 208 212 l 163 225 q 449 60 270 79 z "},"$":{"ha":963,"x_min":29,"x_max":934,"o":"m 933 560 l 755 560 q 648 702 725 647 q 480 757 572 757 q 313 702 389 757 q 206 560 236 647 l 30 560 q 191 823 64 720 q 481 926 318 926 q 771 823 645 926 q 933 560 897 720 m 617 461 q 576 367 617 407 q 481 326 535 326 q 387 367 428 326 q 346 461 346 407 q 387 554 346 514 q 481 594 428 594 q 576 554 535 594 q 617 461 617 514 m 934 361 q 771 102 898 204 q 481 0 644 0 q 192 101 318 0 q 29 361 66 201 l 206 361 q 315 222 238 275 q 481 169 391 169 q 648 222 572 169 q 757 361 725 275 l 934 361 z "},"%":{"ha":1030,"x_min":29,"x_max":1001,"o":"m 1001 751 q 977 708 1001 725 q 926 691 954 692 q 987 462 987 582 q 848 136 987 272 q 519 0 708 0 q 302 57 405 0 q 135 209 199 115 q 42 156 89 184 l 29 215 l 109 258 q 61 462 61 355 q 200 789 61 652 q 529 926 339 926 q 740 870 638 926 q 903 727 838 817 q 970 780 924 780 q 995 772 984 780 q 1001 751 1001 763 m 977 748 q 968 758 977 758 q 925 715 938 758 q 977 748 977 715 m 772 747 q 527 844 661 844 q 259 727 372 844 q 147 455 147 611 q 148 424 147 439 l 772 747 m 902 458 q 895 535 902 497 l 303 155 q 521 82 404 82 q 786 196 670 82 q 902 458 902 309 m 846 668 l 773 623 q 767 644 767 632 q 773 666 767 655 q 752 625 752 648 q 755 611 752 618 l 674 561 q 669 584 669 573 q 679 618 669 602 q 646 559 646 594 q 648 545 646 552 l 568 499 q 561 527 561 513 q 574 568 561 549 q 532 499 532 541 q 536 479 532 488 l 428 418 q 421 451 421 434 q 438 500 421 477 q 381 412 381 466 q 383 391 381 402 q 236 310 310 351 q 225 359 225 333 q 252 436 225 398 q 167 308 167 390 q 172 277 167 292 q 44 208 130 255 l 51 179 l 184 258 q 265 227 214 227 q 366 258 321 227 q 338 255 352 255 q 248 295 284 255 l 390 378 q 451 354 413 354 q 521 376 488 354 q 502 375 512 375 q 436 405 463 375 l 542 469 q 591 450 563 450 q 642 464 619 450 q 575 488 600 463 l 654 537 q 697 520 671 520 q 733 529 715 520 q 678 554 699 529 q 759 606 706 572 q 789 597 773 597 q 814 603 802 597 q 777 619 792 604 q 846 668 818 648 m 462 649 q 439 605 462 623 q 389 587 417 587 q 340 611 360 587 q 321 664 321 635 q 395 802 321 735 q 440 730 433 741 q 462 649 462 686 m 785 278 q 734 248 785 260 q 711 179 711 196 q 693 162 711 162 q 675 179 675 162 q 688 228 675 198 q 672 227 681 227 q 650 243 650 227 q 705 272 650 259 q 715 309 714 294 q 703 310 708 310 q 686 309 694 310 q 649 273 679 273 q 634 285 639 273 q 630 295 630 289 q 632 304 630 300 q 693 347 631 347 q 734 331 718 347 q 747 292 751 315 q 766 296 757 296 q 785 278 785 296 z "},"&":{"ha":2288,"x_min":58,"x_max":2230,"o":"m 2230 471 l 1944 471 q 1839 514 1891 471 q 1759 598 1811 536 l 1759 471 l 1580 471 l 1580 932 l 1905 932 q 2019 884 1969 932 q 2068 774 2068 837 q 1975 633 2068 679 q 1995 623 1983 623 l 2230 623 l 2230 471 m 1565 471 l 1378 471 l 1365 528 l 1245 528 l 1230 471 l 1045 471 l 1166 932 l 1444 932 l 1565 471 m 2230 303 l 1997 303 q 1991 296 1991 303 q 2124 128 2124 209 q 2079 34 2124 73 q 1978 -6 2034 -6 l 1591 -6 q 1486 37 1538 -6 q 1406 122 1461 58 l 1406 -6 l 1227 -6 l 1227 455 l 1552 455 q 1665 407 1616 455 q 1714 297 1714 360 q 1622 156 1714 203 q 1641 146 1630 146 l 1892 146 q 1898 154 1899 146 q 1777 313 1777 235 q 1821 412 1777 369 q 1922 455 1866 455 l 2230 455 l 2230 303 m 1100 780 l 946 780 l 946 471 l 766 471 l 766 780 l 523 780 q 517 773 517 780 l 598 712 q 652 605 652 671 q 606 510 652 550 q 505 471 560 471 l 59 471 l 59 623 l 419 623 q 425 631 426 623 q 303 789 303 708 q 348 889 303 846 q 449 932 392 932 l 1100 932 l 1100 780 m 1211 -6 l 1025 -6 l 1010 51 l 892 51 l 877 -6 l 692 -6 l 813 455 l 1090 455 l 1211 -6 m 767 455 l 647 -6 l 448 -6 l 413 128 l 378 -6 l 178 -6 l 58 455 l 243 455 l 278 321 l 313 455 l 513 455 l 547 321 l 582 455 l 767 455 m 2214 488 l 2214 606 l 1995 606 q 1950 641 1964 606 q 2022 694 1993 659 q 2051 774 2051 730 q 2006 873 2051 831 q 1905 914 1962 914 l 1596 914 l 1596 488 l 1743 488 l 1743 639 l 1840 542 q 1944 488 1894 488 l 2214 488 m 1543 488 l 1431 914 l 1179 914 l 1066 488 l 1218 488 l 1231 544 l 1377 544 l 1392 488 l 1543 488 m 2214 319 l 2214 438 l 1922 438 q 1832 400 1872 438 q 1793 313 1793 362 q 1854 209 1793 262 q 1914 154 1914 156 q 1892 130 1914 130 l 1641 130 q 1596 164 1610 130 q 1668 218 1639 182 q 1698 297 1698 253 q 1653 396 1698 354 q 1552 438 1609 438 l 1243 438 l 1243 12 l 1389 12 l 1389 162 l 1487 65 q 1591 12 1542 12 l 1978 12 q 2068 46 2028 12 q 2108 128 2108 80 q 2041 235 2108 175 q 1973 296 1973 295 q 1997 319 1973 319 l 2214 319 m 1083 796 l 1083 914 l 449 914 q 360 877 399 914 q 321 789 321 839 q 352 714 321 752 q 411 661 372 691 q 442 631 442 637 q 419 606 442 606 l 76 606 l 76 488 l 505 488 q 594 523 554 488 q 634 605 634 557 q 568 711 634 652 q 501 773 501 771 q 523 796 501 796 l 784 796 l 784 488 l 929 488 l 929 796 l 1083 796 m 1190 12 l 1078 438 l 825 438 l 713 12 l 863 12 l 878 67 l 1024 67 l 1039 12 l 1190 12 m 747 438 l 596 438 l 547 255 l 499 438 l 326 438 l 278 255 l 230 438 l 79 438 l 192 12 l 365 12 l 413 194 l 461 12 l 634 12 l 747 438 m 1905 769 q 1891 737 1905 751 q 1860 723 1877 723 l 1743 723 l 1743 814 l 1860 814 q 1891 800 1877 814 q 1905 769 1905 786 m 1353 634 l 1257 634 l 1304 821 l 1353 634 m 1552 292 q 1538 260 1552 274 q 1507 247 1524 247 l 1389 247 l 1389 337 l 1507 337 q 1538 323 1524 337 q 1552 292 1552 309 m 1000 157 l 903 157 l 951 344 l 1000 157 m 1889 769 q 1860 796 1889 796 l 1759 796 l 1759 741 l 1860 741 q 1889 769 1889 741 m 1332 650 l 1304 753 l 1278 650 l 1332 650 m 1535 292 q 1507 319 1535 319 l 1406 319 l 1406 264 l 1507 264 q 1535 292 1535 264 m 978 174 l 951 277 l 925 174 l 978 174 z "},"'":{"ha":1127,"x_min":29,"x_max":1098,"o":"m 1098 823 l 29 823 l 29 926 l 1098 926 l 1098 823 m 1098 124 l 770 124 l 770 453 l 1098 453 l 1098 350 l 892 350 l 892 331 l 1016 331 l 1016 245 l 892 245 l 892 227 l 1098 227 l 1098 124 m 733 802 l 601 576 l 601 473 l 477 473 l 477 576 l 346 802 l 485 802 l 539 706 l 593 802 l 733 802 m 749 124 l 625 124 l 625 245 l 522 245 l 522 124 l 399 124 l 399 453 l 522 453 l 522 331 l 625 331 l 625 453 l 749 453 l 749 124 m 378 569 q 340 499 378 528 q 263 473 307 473 l 29 473 l 29 802 l 243 802 q 322 775 287 802 q 358 706 358 749 q 338 647 358 671 q 378 569 378 619 m 1098 0 l 29 0 l 29 103 l 1098 103 l 1098 0 m 378 350 l 265 350 l 265 124 l 142 124 l 142 350 l 29 350 l 29 453 l 378 453 l 378 350 m 251 696 q 226 720 251 720 l 144 720 l 144 671 l 226 671 q 251 696 251 671 m 255 580 q 230 605 255 605 l 144 605 l 144 556 l 230 556 q 255 580 255 556 z "},"(":{"ha":2579,"x_min":58,"x_max":2521,"o":"m 2521 596 l 2131 528 l 2131 931 l 2521 1000 l 2521 874 l 2277 831 l 2277 808 l 2424 833 l 2424 729 l 2277 703 l 2277 679 l 2521 722 l 2521 596 m 2521 1049 l 1478 866 l 1478 966 l 2521 1150 l 2521 1049 m 2521 360 q 2458 350 2473 350 q 2380 399 2431 350 l 2380 336 l 2303 322 l 2303 534 l 2380 547 l 2380 478 l 2427 556 l 2521 572 l 2447 448 q 2485 420 2466 420 q 2521 426 2500 420 l 2521 360 m 2278 317 q 2177 302 2211 302 q 2113 328 2141 302 q 2086 390 2086 354 q 2117 470 2086 435 q 2194 514 2149 506 l 2278 529 l 2278 463 q 2155 402 2155 457 q 2189 369 2155 369 q 2278 383 2220 369 l 2278 317 m 2081 520 q 1964 500 1992 500 q 1882 535 1922 500 l 1814 593 l 1814 472 l 1668 447 l 1668 850 l 1946 898 q 1968 900 1958 900 q 2047 866 2013 900 q 2081 786 2081 831 q 1999 647 2081 696 q 2020 634 2007 634 q 2081 645 2044 634 l 2081 520 m 2086 284 l 2006 270 l 2000 295 l 1941 285 l 1934 257 l 1854 243 l 1910 464 l 2032 486 l 2086 284 m 1455 861 l 1356 844 l 1356 944 l 1455 962 l 1455 931 l 1394 920 l 1394 913 l 1429 920 l 1429 895 l 1394 888 l 1394 882 l 1455 892 l 1455 861 m 1345 841 l 1308 836 l 1308 873 l 1277 867 l 1277 830 l 1241 823 l 1241 925 l 1277 931 l 1277 894 l 1308 898 l 1308 936 l 1345 943 l 1345 841 m 1619 438 l 1473 412 l 1473 815 l 1619 840 l 1619 438 m 1851 304 q 1829 255 1851 277 q 1778 229 1807 234 l 1632 204 l 1632 416 l 1766 439 q 1779 440 1773 440 q 1819 425 1801 440 q 1838 389 1838 411 q 1825 350 1838 368 q 1851 304 1851 334 m 1229 891 l 1194 884 l 1194 815 l 1159 809 l 1159 878 l 1125 873 l 1125 904 l 1229 922 l 1229 891 m 1424 666 q 1384 558 1424 606 q 1287 500 1345 510 l 1156 477 l 1156 356 l 1009 330 l 1009 733 l 1287 782 q 1308 785 1300 785 q 1389 748 1354 785 q 1424 666 1424 712 m 1556 336 l 1475 322 q 1470 314 1470 321 q 1501 291 1470 315 q 1531 245 1531 267 q 1512 200 1531 220 q 1466 175 1493 179 l 1351 154 l 1351 220 l 1427 234 q 1433 242 1433 235 l 1432 242 q 1377 306 1377 269 q 1396 355 1377 332 q 1441 382 1414 377 l 1556 402 l 1556 336 m 1326 149 l 1120 113 l 1120 325 l 1326 361 l 1326 295 l 1197 273 l 1197 260 l 1274 274 l 1274 220 l 1197 206 l 1197 193 l 1326 215 l 1326 149 m 2521 209 l 58 -225 l 58 -123 l 2521 311 l 2521 209 m 959 322 l 814 295 l 814 421 l 728 280 l 644 391 l 644 265 l 498 240 l 498 644 l 644 669 l 728 558 l 814 699 l 959 725 l 959 322 m 1095 109 q 1034 100 1051 100 q 954 148 1006 100 l 954 84 l 877 71 l 877 282 l 954 296 l 954 227 l 1001 304 l 1095 321 l 1021 197 q 1059 169 1041 169 q 1095 175 1074 169 l 1095 109 m 1102 799 l 253 649 l 253 600 l 448 634 l 448 458 l 253 424 l 253 373 l 448 407 l 448 231 l 58 162 l 58 716 l 1102 900 l 1102 799 m 852 66 l 775 52 l 775 264 l 852 278 l 852 66 m 749 47 q 688 37 701 37 q 609 87 660 37 l 609 23 l 531 9 l 531 221 l 677 247 q 689 248 684 248 q 731 230 713 248 q 749 188 749 212 q 706 116 749 141 q 721 109 712 109 q 749 113 734 109 l 749 47 m 506 150 l 435 139 l 435 -7 l 359 -21 l 359 125 l 288 112 l 288 178 l 506 216 l 506 150 m 264 108 q 218 104 231 106 q 177 84 190 98 q 237 17 237 56 q 219 -28 237 -8 q 174 -53 200 -49 l 58 -74 l 58 -8 q 102 -5 88 -7 q 139 15 127 1 q 83 78 83 38 q 102 127 83 105 q 148 154 122 149 l 264 174 l 264 108 m 1935 756 q 1911 781 1935 781 q 1814 765 1897 781 l 1814 704 l 1906 720 q 1935 756 1935 725 m 1987 346 l 1971 404 l 1955 340 l 1987 346 m 1771 370 q 1757 384 1771 384 q 1704 375 1751 384 l 1704 344 l 1756 352 q 1771 370 1771 354 m 1774 299 q 1760 310 1774 310 q 1704 301 1753 310 l 1704 270 l 1758 279 q 1774 299 1774 281 m 1277 639 q 1253 664 1277 664 q 1156 648 1240 664 l 1156 588 l 1249 604 q 1277 639 1277 609 m 672 172 q 659 184 672 184 q 609 176 652 184 l 609 145 l 656 153 q 672 172 672 155 z "},")":{"ha":0,"x_min":-4523,"x_max":4523,"o":"m 4523 1042 l 1063 1042 q 1120 1115 1123 1060 l 4523 1115 l 4523 1042 m 1105 1201 l 987 1201 q 983 1192 981 1201 q 1028 1156 1005 1175 q 1051 1108 1051 1137 q 1028 1061 1051 1080 q 978 1042 1006 1042 l 779 1042 q 725 1066 752 1042 q 681 1111 703 1089 l 681 1042 l 594 1042 l 594 1273 l 758 1273 q 815 1250 789 1273 q 840 1196 840 1227 q 789 1124 840 1145 q 806 1115 795 1115 l 934 1115 q 940 1122 940 1115 q 898 1155 919 1138 q 877 1203 877 1172 q 899 1252 877 1230 q 949 1273 921 1273 l 1105 1273 l 1105 1201 m 580 1042 l 490 1042 l 483 1071 l 417 1071 l 409 1042 l 319 1042 l 380 1273 l 519 1273 l 580 1042 m 351 1273 l 289 1042 l 191 1042 l 171 1119 l 150 1042 l 52 1042 l -8 1273 l 81 1273 l 102 1196 l 122 1273 l 220 1273 l 241 1196 l 260 1273 l 351 1273 m -62 1042 l -208 1042 q -263 1066 -235 1042 q -306 1111 -265 1068 l -306 1042 l -392 1042 l -392 1273 l -228 1273 q -172 1250 -197 1273 q -147 1196 -147 1227 q -197 1124 -147 1145 q -182 1115 -191 1115 l -62 1115 l -62 1042 m -407 1042 l -497 1042 l -505 1071 l -571 1071 l -579 1042 l -668 1042 l -608 1273 l -469 1273 l -407 1042 m 4523 -189 l -4523 -189 l -4523 -116 l 4523 -116 l 4523 -189 m -646 1201 l -726 1201 l -726 1042 l -812 1042 l -812 1201 l -941 1201 q -947 1194 -947 1201 l -946 1192 q -900 1157 -907 1164 q -877 1108 -877 1134 q -900 1061 -877 1080 q -950 1042 -922 1042 l -4523 1042 l -4523 1115 l -994 1115 q -988 1122 -988 1115 q -1030 1154 -1009 1138 q -1051 1203 -1051 1170 q -1029 1252 -1051 1230 q -979 1273 -1007 1273 l -646 1273 l -646 1201 m 753 1192 q 736 1209 753 1209 l 681 1209 l 681 1175 l 736 1175 q 753 1192 753 1175 m 466 1128 l 449 1196 l 432 1128 l 466 1128 m -234 1192 q -251 1209 -234 1209 l -306 1209 l -306 1175 l -251 1175 q -234 1192 -234 1175 m -520 1128 l -538 1196 l -556 1128 l -520 1128 z "},"*":{"ha":2052,"x_min":58,"x_max":1994,"o":"m 1734 520 l 1565 520 l 1432 692 l 1494 520 l 1339 520 l 1244 926 l 1465 926 q 1534 878 1498 926 q 1617 723 1617 767 q 1582 688 1617 697 l 1734 520 m 1994 45 q 1924 0 1994 0 l 1618 0 q 1543 53 1558 0 l 1502 192 l 1667 192 q 1715 140 1677 140 q 1744 155 1744 140 q 1715 205 1744 188 q 1657 221 1691 221 q 1616 219 1644 221 q 1574 218 1588 218 q 1484 258 1514 218 q 1446 359 1468 280 q 1424 469 1424 438 q 1447 498 1424 490 l 1450 492 l 1440 473 q 1457 462 1446 462 q 1463 463 1459 462 q 1471 481 1469 471 l 1459 494 l 1464 500 l 1697 500 q 1772 463 1752 500 l 1830 356 l 1657 356 q 1612 390 1646 390 q 1594 381 1594 390 q 1607 348 1594 362 q 1639 333 1620 333 l 1794 333 q 1899 242 1846 333 q 1969 104 1934 172 q 1994 45 1994 59 m 1561 0 l 1370 0 l 1255 204 l 1279 0 l 1098 0 l 1090 500 l 1355 500 q 1438 397 1402 500 q 1466 253 1466 313 q 1448 223 1466 234 q 1409 215 1429 213 l 1561 0 m 1321 520 l 1176 520 l 1168 593 l 1095 593 l 1072 520 l 781 520 l 830 723 q 848 711 837 714 q 865 742 866 719 q 848 749 858 747 q 833 738 839 745 l 858 839 l 692 839 q 656 814 656 839 q 716 801 656 796 q 728 775 715 785 q 750 801 755 782 l 772 801 q 821 771 821 801 q 818 757 821 766 l 772 568 q 690 520 760 520 l 435 520 q 380 551 380 520 q 402 616 380 581 q 443 674 422 645 l 595 674 q 587 646 587 660 q 608 635 587 635 q 642 653 628 635 q 655 692 655 671 q 631 703 655 703 l 531 703 q 483 733 483 703 q 513 815 483 759 q 563 890 537 859 q 624 926 591 926 l 1078 926 l 1043 839 l 984 839 l 944 568 l 1090 926 l 1231 926 l 1321 520 m 1078 0 l 914 0 l 920 97 l 832 97 l 766 0 l 595 0 l 904 500 l 1074 500 l 1078 0 m 882 500 l 571 0 l 397 0 l 447 240 l 253 0 l 58 0 l 345 500 l 466 500 l 360 291 l 550 500 l 649 500 l 602 291 l 750 500 l 882 500 m 1483 899 l 1483 900 l 1476 905 l 1472 897 q 1483 899 1478 897 m 1463 797 l 1463 799 l 1457 799 l 1457 797 l 1459 794 l 1463 797 m 1441 810 q 1410 838 1441 838 q 1383 836 1411 838 l 1395 801 q 1419 799 1414 799 q 1441 810 1441 799 m 1816 249 l 1816 252 l 1813 252 l 1815 247 l 1816 249 m 1775 284 l 1775 286 l 1771 286 l 1775 284 m 1206 832 q 1193 845 1206 845 q 1178 838 1186 845 q 1176 826 1176 831 q 1178 816 1176 822 q 1184 815 1181 815 l 1190 815 q 1206 832 1206 815 m 1390 654 q 1377 662 1390 662 l 1372 662 q 1360 635 1361 653 q 1370 628 1365 631 q 1390 654 1390 644 m 1824 190 l 1824 192 l 1821 192 l 1824 190 m 1737 258 l 1737 260 l 1731 260 l 1737 258 m 1199 779 l 1197 780 l 1192 778 l 1198 775 l 1199 779 m 1904 51 q 1882 75 1904 75 q 1867 64 1867 75 q 1876 44 1867 54 q 1892 43 1888 43 q 1902 44 1897 43 q 1904 51 1903 47 m 1507 390 l 1503 395 l 1503 394 l 1507 390 m 1160 683 l 1150 758 l 1125 683 l 1160 683 m 1567 302 q 1558 308 1565 308 q 1546 297 1546 308 q 1556 282 1546 289 q 1567 302 1566 292 m 1501 334 l 1501 336 l 1497 338 l 1499 334 l 1501 334 m 863 909 q 848 921 853 916 q 833 895 833 909 q 843 887 833 887 q 854 891 850 887 q 863 909 859 895 m 1738 19 l 1731 19 l 1730 16 l 1736 13 l 1738 19 m 929 815 q 921 822 929 821 l 919 821 q 914 815 918 818 q 911 809 911 813 l 919 804 l 925 804 q 929 815 929 808 m 1059 674 l 1059 681 l 1056 685 q 1044 675 1044 684 l 1051 669 l 1057 669 l 1059 674 m 1293 356 q 1260 387 1293 387 q 1229 384 1260 387 l 1236 340 q 1265 339 1258 339 q 1293 356 1293 339 m 630 905 l 626 907 l 625 903 l 626 903 l 630 905 m 1237 304 q 1223 322 1237 322 q 1207 314 1219 322 q 1205 297 1205 302 q 1207 291 1205 296 q 1228 282 1215 284 q 1237 304 1237 289 m 1194 315 l 1194 316 l 1186 316 l 1186 310 l 1189 308 q 1194 315 1194 321 m 631 873 l 626 878 l 624 873 l 626 870 l 631 873 m 591 819 l 591 823 l 587 823 l 587 819 l 591 819 m 1176 154 l 1175 167 l 1169 156 l 1172 146 l 1176 154 m 779 473 l 779 475 l 774 479 l 767 473 l 769 470 l 774 470 l 779 473 m 882 302 q 852 326 882 326 q 832 302 833 326 q 851 282 839 288 l 852 282 q 860 279 855 280 q 882 302 882 287 m 742 409 l 742 411 q 735 418 742 417 l 736 407 l 741 407 l 742 409 m 932 277 l 883 192 l 927 192 l 932 277 m 995 127 l 993 132 l 988 127 l 993 124 l 995 127 m 493 611 l 493 617 q 488 618 492 617 l 483 618 q 477 611 477 618 q 484 600 477 603 q 493 611 493 603 m 716 352 l 716 358 l 713 353 l 716 352 m 913 141 q 903 150 913 149 q 895 138 895 147 q 904 130 895 131 l 906 134 l 911 137 l 913 141 m 598 424 l 598 427 l 595 424 l 598 424 m 521 373 l 517 381 q 507 375 512 381 l 506 375 l 506 363 q 507 359 506 362 l 515 362 q 521 373 517 366 m 493 352 l 493 354 l 491 358 l 487 359 l 485 354 l 487 351 l 493 352 m 390 438 l 385 442 l 384 436 q 390 438 387 438 m 586 171 q 568 185 578 184 q 557 167 557 179 l 557 159 q 573 149 564 150 q 586 171 584 161 m 552 86 l 552 90 l 551 90 l 552 86 m 280 323 l 280 326 l 279 328 l 274 325 l 280 323 m 295 240 l 292 243 l 286 240 l 289 235 l 292 234 l 295 240 m 185 127 l 185 135 l 176 135 l 176 134 q 185 127 176 128 m 149 119 l 149 124 l 147 127 l 144 122 l 144 117 l 148 117 l 149 119 z "},"+":{"ha":521,"x_min":29,"x_max":492,"o":"m 492 463 q 423 300 492 369 q 260 231 354 231 q 98 300 167 231 q 29 463 29 369 q 98 626 29 557 q 260 694 167 694 q 423 626 354 694 q 492 463 492 557 z "},",":{"ha":1127,"x_min":29,"x_max":1098,"o":"m 1098 124 l 770 124 l 770 453 l 1098 453 l 1098 350 l 892 350 l 892 331 l 1016 331 l 1016 245 l 892 245 l 892 227 l 1098 227 l 1098 124 m 749 124 l 625 124 l 625 245 l 522 245 l 522 124 l 399 124 l 399 453 l 522 453 l 522 331 l 625 331 l 625 453 l 749 453 l 749 124 m 1098 0 l 29 0 l 29 103 l 1098 103 l 1098 0 m 378 350 l 265 350 l 265 124 l 142 124 l 142 350 l 29 350 l 29 453 l 378 453 l 378 350 z "},"-":{"ha":521,"x_min":29,"x_max":492,"o":"m 492 463 q 423 300 492 369 q 260 231 354 231 q 98 300 167 231 q 29 463 29 369 q 98 626 29 557 q 260 694 167 694 q 423 626 354 694 q 492 463 492 557 z "},".":{"ha":1127,"x_min":29,"x_max":1098,"o":"m 1098 473 l 770 473 l 770 802 l 1098 802 l 1098 699 l 892 699 l 892 681 l 1016 681 l 1016 595 l 892 595 l 892 576 l 1098 576 l 1098 473 m 1098 823 l 29 823 l 29 926 l 1098 926 l 1098 823 m 749 473 l 625 473 l 625 595 l 522 595 l 522 473 l 399 473 l 399 802 l 522 802 l 522 681 l 625 681 l 625 802 l 749 802 l 749 473 m 378 699 l 265 699 l 265 473 l 142 473 l 142 699 l 29 699 l 29 802 l 378 802 l 378 699 z "},"/":{"ha":521,"x_min":29,"x_max":492,"o":"m 492 463 q 423 300 492 369 q 260 231 354 231 q 98 300 167 231 q 29 463 29 369 q 98 626 29 557 q 260 694 167 694 q 423 626 354 694 q 492 463 492 557 z "},":":{"ha":1127,"x_min":29,"x_max":1098,"o":"m 1098 473 l 995 473 q 917 509 959 473 q 855 572 887 541 l 855 473 l 733 473 l 733 802 l 966 802 q 1047 769 1012 802 q 1082 691 1082 736 q 1012 589 1082 616 q 1032 576 1019 576 l 1098 576 l 1098 473 m 1098 823 l 29 823 l 29 926 l 1098 926 l 1098 823 m 1098 124 l 770 124 l 770 453 l 1098 453 l 1098 350 l 892 350 l 892 331 l 1016 331 l 1016 245 l 892 245 l 892 227 l 1098 227 l 1098 124 m 712 638 q 659 521 712 568 q 537 473 606 473 q 415 521 468 473 q 362 638 362 568 q 415 755 362 707 q 537 802 468 802 q 659 755 606 802 q 712 638 712 707 m 749 124 l 625 124 l 625 245 l 522 245 l 522 124 l 399 124 l 399 453 l 522 453 l 522 331 l 625 331 l 625 453 l 749 453 l 749 124 m 358 699 l 153 699 l 153 681 l 275 681 l 275 595 l 153 595 l 153 473 l 29 473 l 29 802 l 358 802 l 358 699 m 1098 0 l 29 0 l 29 103 l 1098 103 l 1098 0 m 378 350 l 265 350 l 265 124 l 142 124 l 142 350 l 29 350 l 29 453 l 378 453 l 378 350 m 958 688 q 934 712 958 712 l 855 712 l 855 662 l 934 662 q 958 688 958 662 m 601 638 q 582 681 601 663 q 537 699 563 699 q 492 681 512 699 q 473 638 473 663 q 492 594 473 612 q 537 576 512 576 q 582 594 563 576 q 601 638 601 612 z "},";":{"ha":1127,"x_min":29,"x_max":1098,"o":"m 1098 823 l 29 823 l 29 926 l 1098 926 l 1098 823 m 1098 124 l 770 124 l 770 453 l 1098 453 l 1098 350 l 892 350 l 892 331 l 1016 331 l 1016 245 l 892 245 l 892 227 l 1098 227 l 1098 124 m 720 699 l 606 699 l 606 473 l 484 473 l 484 699 l 370 699 l 370 802 l 720 802 l 720 699 m 749 124 l 625 124 l 625 245 l 522 245 l 522 124 l 399 124 l 399 453 l 522 453 l 522 331 l 625 331 l 625 453 l 749 453 l 749 124 m 399 473 l 272 473 l 260 514 l 167 514 l 156 473 l 29 473 l 116 802 l 313 802 l 399 473 m 1098 0 l 29 0 l 29 103 l 1098 103 l 1098 0 m 378 350 l 265 350 l 265 124 l 142 124 l 142 350 l 29 350 l 29 453 l 378 453 l 378 350 m 240 597 l 214 692 l 189 597 l 240 597 z "},"<":{"ha":1127,"x_min":29,"x_max":1098,"o":"m 1098 823 l 29 823 l 29 926 l 1098 926 l 1098 823 m 1098 124 l 770 124 l 770 453 l 1098 453 l 1098 350 l 892 350 l 892 331 l 1016 331 l 1016 245 l 892 245 l 892 227 l 1098 227 l 1098 124 m 749 124 l 625 124 l 625 245 l 522 245 l 522 124 l 399 124 l 399 453 l 522 453 l 522 331 l 625 331 l 625 453 l 749 453 l 749 124 m 1098 0 l 29 0 l 29 103 l 1098 103 l 1098 0 m 378 350 l 265 350 l 265 124 l 142 124 l 142 350 l 29 350 l 29 453 l 378 453 l 378 350 z "},"=":{"ha":521,"x_min":29,"x_max":492,"o":"m 492 463 q 423 300 492 369 q 260 231 354 231 q 98 300 167 231 q 29 463 29 369 q 98 626 29 557 q 260 694 167 694 q 423 626 354 694 q 492 463 492 557 z "},">":{"ha":1127,"x_min":29,"x_max":1098,"o":"m 1098 473 l 770 473 l 770 802 l 1098 802 l 1098 699 l 892 699 l 892 681 l 1016 681 l 1016 595 l 892 595 l 892 576 l 1098 576 l 1098 473 m 1098 823 l 29 823 l 29 926 l 1098 926 l 1098 823 m 749 473 l 625 473 l 625 595 l 522 595 l 522 473 l 399 473 l 399 802 l 522 802 l 522 681 l 625 681 l 625 802 l 749 802 l 749 473 m 378 699 l 265 699 l 265 473 l 142 473 l 142 699 l 29 699 l 29 802 l 378 802 l 378 699 m 1098 0 l 29 0 l 29 103 l 1098 103 l 1098 0 z "},"?":{"ha":315,"x_min":29,"x_max":286,"o":"m 286 926 l 214 813 l 214 755 l 243 755 l 243 727 l 229 727 l 229 698 l 243 698 l 243 669 l 229 669 l 229 641 l 243 641 l 243 612 l 214 612 l 214 542 l 229 542 l 229 356 l 243 328 l 243 29 q 164 0 208 0 q 86 29 120 0 l 86 542 l 101 542 l 101 612 l 72 612 l 72 641 l 86 641 l 86 669 l 72 669 l 72 698 l 86 698 l 86 727 l 72 727 l 72 755 l 101 755 l 101 813 l 29 926 l 286 926 z "},"@":{"ha":984,"x_min":29,"x_max":955,"o":"m 955 465 q 819 137 955 273 q 492 0 684 0 q 164 137 300 0 q 29 465 29 273 q 166 791 29 655 q 492 926 302 926 q 819 791 683 926 q 955 465 955 655 m 924 465 q 796 769 924 642 q 492 895 669 895 q 188 769 315 895 q 60 465 60 642 q 186 159 60 286 q 492 31 313 31 q 797 159 671 31 q 924 465 924 286 m 904 465 q 783 172 904 294 q 492 51 662 51 q 200 172 321 51 q 80 465 80 294 q 201 755 80 634 q 492 875 323 875 q 782 755 661 875 q 904 465 904 634 m 785 699 l 740 706 l 766 743 l 729 716 l 723 760 l 716 716 l 679 743 l 706 706 l 662 699 l 706 692 l 679 655 l 716 682 l 723 637 l 729 682 l 766 655 l 740 692 l 785 699 m 868 568 l 824 575 l 851 611 l 814 584 l 807 630 l 800 584 l 764 611 l 791 575 l 745 568 l 791 560 l 764 523 l 800 551 l 807 506 l 814 551 l 851 523 l 824 560 l 868 568 m 641 784 l 597 792 l 623 828 l 587 801 l 580 846 l 572 801 l 536 828 l 561 792 l 517 784 l 561 777 l 536 741 l 572 766 l 580 722 l 587 766 l 623 741 l 597 777 l 641 784 m 881 410 l 837 417 l 862 453 l 826 427 l 819 471 l 811 427 l 775 453 l 802 417 l 757 410 l 802 403 l 775 366 l 811 392 l 819 347 l 826 392 l 862 366 l 837 403 l 881 410 m 456 785 l 412 792 l 438 829 l 402 802 l 395 847 l 387 802 l 351 829 l 376 792 l 332 785 l 376 778 l 351 742 l 387 767 l 395 723 l 402 767 l 438 742 l 412 778 l 456 785 m 829 273 l 784 280 l 810 316 l 774 291 l 766 334 l 759 291 l 723 316 l 749 280 l 705 273 l 749 265 l 723 229 l 759 255 l 766 211 l 774 255 l 810 229 l 784 265 l 829 273 m 749 462 q 712 591 749 530 q 616 685 676 652 q 672 554 672 628 q 649 465 672 503 q 574 419 622 419 q 519 520 519 419 q 589 639 519 610 l 560 674 q 521 633 535 659 q 538 699 521 670 l 492 755 l 446 699 q 464 633 464 669 q 425 674 450 657 l 395 639 q 465 520 465 610 q 410 419 465 419 q 334 465 362 419 q 311 554 311 503 q 368 685 311 628 q 271 591 308 652 q 235 462 235 530 q 311 279 235 356 q 492 201 387 201 q 673 279 597 201 q 749 462 749 356 m 317 699 l 273 706 l 300 743 l 263 716 l 256 760 l 249 716 l 212 743 l 238 706 l 193 699 l 238 692 l 212 655 l 249 682 l 256 637 l 263 682 l 300 655 l 273 692 l 317 699 m 708 170 l 663 177 l 690 213 l 654 188 l 646 231 l 639 188 l 603 213 l 628 177 l 584 170 l 628 162 l 603 126 l 639 153 l 646 108 l 654 153 l 690 126 l 663 162 l 708 170 m 237 569 l 193 578 l 220 615 l 183 588 l 176 632 l 170 588 l 133 615 l 160 578 l 115 569 l 160 564 l 133 527 l 170 553 l 176 508 l 183 553 l 220 527 l 193 564 l 237 569 m 553 128 l 509 135 l 535 171 l 499 146 l 492 190 l 485 146 l 449 171 l 475 135 l 431 128 l 475 122 l 449 86 l 485 111 l 492 67 l 499 111 l 535 86 l 509 122 l 553 128 m 219 416 l 175 422 l 200 458 l 164 433 l 157 477 l 150 433 l 115 458 l 140 422 l 96 416 l 140 409 l 115 373 l 150 398 l 157 354 l 164 398 l 200 373 l 175 409 l 219 416 m 398 171 l 354 178 l 380 214 l 344 189 l 337 233 l 330 189 l 293 214 l 319 178 l 274 171 l 319 163 l 293 127 l 330 153 l 337 109 l 344 153 l 380 127 l 354 163 l 398 171 m 278 278 l 234 285 l 259 321 l 223 295 l 216 339 l 209 295 l 172 321 l 199 285 l 154 278 l 199 271 l 172 235 l 209 260 l 216 216 l 223 260 l 259 235 l 234 271 l 278 278 z "},"A":{"ha":984,"x_min":29,"x_max":955,"o":"m 955 463 q 818 137 955 273 q 492 0 682 0 q 166 137 302 0 q 29 463 29 273 q 166 789 29 653 q 492 926 302 926 q 818 789 682 926 q 955 463 955 653 m 897 463 q 778 749 897 630 q 492 868 659 868 q 318 829 402 868 l 318 463 l 260 463 l 260 795 q 134 649 181 738 q 87 463 87 560 q 206 177 87 296 q 492 58 325 58 q 778 177 659 58 q 897 463 897 296 z "},"B":{"ha":1296,"x_min":29,"x_max":1267,"o":"m 1267 336 q 1191 245 1267 278 q 1065 220 1132 220 q 873 297 925 220 q 492 174 730 174 q 301 199 394 174 q 119 289 193 229 q 29 463 29 365 q 119 637 29 561 q 301 727 193 697 q 492 752 394 752 q 672 729 584 752 q 860 639 785 700 q 955 463 955 564 q 953 431 955 447 q 1065 451 1009 451 q 1191 426 1132 451 q 1267 336 1267 394 m 1209 336 q 1065 399 1209 399 q 920 336 920 399 q 1065 272 920 272 q 1209 336 1209 272 m 897 463 q 803 605 897 542 q 637 676 730 654 q 492 694 559 694 q 339 674 419 694 q 177 602 247 649 q 87 463 87 541 q 177 324 87 385 q 339 252 247 277 q 492 231 419 231 q 637 250 559 231 q 803 321 730 272 q 897 463 897 384 z "},"C":{"ha":637,"x_min":29,"x_max":608,"o":"m 608 463 q 567 222 608 332 q 422 31 519 91 l 422 -116 l 365 -116 l 365 6 q 318 0 341 0 q 272 6 295 0 l 272 -116 l 214 -116 l 214 31 q 69 222 119 91 q 29 463 29 332 q 57 663 29 569 q 148 839 88 769 q 318 926 222 926 q 488 839 414 926 q 580 663 549 769 q 608 463 608 569 m 550 463 q 495 714 550 590 q 318 868 428 868 q 141 714 208 868 q 87 463 87 590 q 214 104 87 228 l 214 579 l 272 579 l 272 67 q 318 58 294 58 q 365 67 343 58 l 365 231 l 422 231 l 422 104 q 550 463 550 227 z "},"D":{"ha":984,"x_min":29,"x_max":955,"o":"m 955 434 l 521 434 l 521 116 l 463 116 l 463 434 l 29 434 l 29 463 q 166 789 29 653 q 492 926 302 926 q 818 789 682 926 q 955 463 955 653 l 955 434 m 896 492 q 767 759 883 650 q 492 868 650 868 q 217 759 333 868 q 88 492 101 650 l 463 492 l 463 694 l 521 694 l 521 492 l 896 492 z "},"E":{"ha":1100,"x_min":29,"x_max":1071,"o":"m 1071 463 q 934 137 1071 273 q 608 0 797 0 q 292 126 426 0 q 146 434 159 252 l 29 434 l 29 492 l 146 492 q 292 800 159 674 q 608 926 426 926 q 934 789 797 926 q 1071 463 1071 653 m 1013 463 q 894 749 1013 630 q 608 868 774 868 q 333 759 449 868 q 204 492 216 650 l 492 492 l 492 434 l 204 434 q 333 167 216 275 q 608 58 449 58 q 894 177 774 58 q 1013 463 1013 296 z "},"F":{"ha":1127,"x_min":29,"x_max":1098,"o":"m 1098 463 q 962 137 1098 273 q 635 0 825 0 q 319 127 453 0 q 174 436 185 253 q 71 497 112 448 q 29 608 29 545 q 80 730 29 678 q 203 781 132 781 q 325 730 273 781 q 376 608 376 678 q 332 492 376 543 l 1098 492 l 1098 463 m 1039 434 l 231 434 q 361 167 244 275 q 635 58 477 58 q 910 167 794 58 q 1039 434 1027 275 m 318 608 q 284 689 318 655 q 203 723 250 723 q 122 689 156 723 q 87 608 87 654 q 122 527 87 561 q 203 492 156 492 q 284 527 249 492 q 318 608 318 561 z "},"G":{"ha":637,"x_min":29,"x_max":608,"o":"m 608 463 q 584 282 608 372 q 494 95 556 170 q 318 0 419 0 q 142 95 218 0 q 52 282 81 170 q 29 463 29 372 q 54 654 29 564 q 146 836 86 763 q 318 926 220 926 q 491 836 417 926 q 582 654 551 763 q 608 463 608 564 m 550 463 q 512 552 550 514 q 422 590 473 590 q 333 552 372 590 q 295 463 295 514 q 333 373 295 411 q 422 336 370 336 q 512 373 475 336 q 550 463 550 411 m 531 314 q 422 278 481 278 q 292 333 347 278 q 237 463 237 388 q 292 593 237 538 q 422 648 347 648 q 531 612 481 648 q 461 777 508 708 q 318 868 399 868 q 174 774 237 868 q 104 606 126 703 q 87 463 87 530 q 104 319 87 396 q 174 152 126 223 q 318 58 237 58 q 461 149 399 58 q 531 314 507 218 z "},"H":{"ha":752,"x_min":29,"x_max":723,"o":"m 723 463 q 621 218 723 321 q 376 116 519 116 q 131 218 234 116 q 29 463 29 321 q 131 708 29 605 q 376 810 234 810 q 621 708 519 810 q 723 463 723 605 m 666 463 q 580 667 666 581 q 376 752 494 752 q 172 667 257 752 q 87 463 87 582 q 172 259 87 344 q 376 174 257 174 q 580 259 495 174 q 666 463 666 344 z "},"I":{"ha":1215,"x_min":29,"x_max":1186,"o":"m 1186 434 l 1068 434 q 888 231 1046 304 q 608 174 759 174 q 328 231 455 174 q 147 434 170 303 l 29 434 l 29 492 l 147 492 q 328 694 170 623 q 608 752 455 752 q 888 694 759 752 q 1068 492 1046 622 l 1186 492 l 1186 434 m 1009 492 q 841 647 979 589 q 608 694 727 694 q 374 646 488 694 q 206 492 237 589 l 1009 492 m 1009 434 l 206 434 q 374 280 237 338 q 608 231 488 231 q 841 279 727 231 q 1009 434 979 337 z "},"J":{"ha":868,"x_min":29,"x_max":839,"o":"m 839 434 l 521 434 l 521 0 l 492 0 q 166 137 302 0 q 29 463 29 273 q 166 789 29 653 q 492 926 302 926 l 521 926 l 521 492 l 839 492 l 839 434 m 463 59 l 463 434 l 260 434 l 260 492 l 463 492 l 463 867 q 196 738 304 854 q 87 463 87 622 q 196 188 87 304 q 463 59 304 72 z "},"K":{"ha":1127,"x_min":29,"x_max":1098,"o":"m 1098 318 q 1047 196 1098 248 q 925 145 995 145 q 803 196 854 145 q 751 318 751 248 q 795 434 751 383 l 29 434 l 29 463 q 166 789 29 653 q 492 926 302 926 q 808 799 675 926 q 954 490 942 672 q 1057 429 1015 477 q 1098 318 1098 381 m 1041 318 q 1006 399 1041 365 q 925 434 971 434 q 844 399 878 434 q 809 318 809 365 q 843 237 809 271 q 925 203 877 203 q 1006 237 971 203 q 1041 318 1041 272 m 896 492 q 767 759 883 650 q 492 868 650 868 q 217 759 333 868 q 88 492 101 650 l 896 492 z "},"L":{"ha":637,"x_min":29,"x_max":608,"o":"m 608 307 q 582 116 608 208 q 492 -66 552 8 q 318 -156 417 -156 q 145 -66 220 -156 q 54 116 84 8 q 29 307 29 208 q 52 487 29 399 q 142 675 81 600 q 318 770 218 770 q 351 767 334 770 q 330 880 330 824 q 355 1006 330 947 q 446 1082 388 1082 q 536 1006 503 1082 q 561 880 561 947 q 484 688 561 740 q 608 307 608 545 m 509 880 q 446 1024 509 1024 q 382 880 382 1024 q 446 735 382 735 q 509 880 509 735 m 550 307 q 531 451 550 374 q 461 618 509 545 q 318 712 397 712 q 176 618 240 712 q 105 451 127 545 q 87 307 87 374 q 108 154 87 234 q 179 -8 132 61 q 318 -98 241 -98 q 457 -8 396 -98 q 529 154 505 61 q 550 307 550 234 z "},"M":{"ha":984,"x_min":29,"x_max":955,"o":"m 955 463 q 860 287 955 362 q 672 197 785 226 q 492 174 583 174 q 301 199 391 174 q 119 291 192 230 q 29 463 29 365 q 119 635 29 561 q 301 727 192 696 q 492 752 391 752 q 672 729 583 752 q 860 639 785 700 q 955 463 955 564 m 897 463 q 742 641 897 573 q 492 694 619 694 q 242 640 365 694 q 87 463 87 573 q 178 321 87 382 q 343 250 247 273 q 307 359 307 300 q 362 489 307 434 q 492 544 417 544 q 622 489 567 544 q 677 359 677 434 q 641 250 677 300 q 806 321 737 273 q 897 463 897 382 m 619 359 q 581 448 619 410 q 492 486 543 486 q 403 448 441 486 q 365 359 365 410 q 403 270 365 308 q 492 231 441 231 q 581 270 543 231 q 619 359 619 308 z "},"N":{"ha":984,"x_min":29,"x_max":955,"o":"m 955 463 q 818 137 955 273 q 492 0 682 0 q 166 137 302 0 q 29 463 29 273 q 166 789 29 653 q 492 926 302 926 q 818 789 682 926 q 955 463 955 653 m 897 463 q 778 749 897 630 q 492 868 659 868 q 206 749 325 868 q 87 463 87 630 q 134 277 87 366 q 260 131 181 188 l 260 463 l 318 463 l 318 97 q 492 58 402 58 q 778 177 659 58 q 897 463 897 296 z "},"O":{"ha":1296,"x_min":29,"x_max":1267,"o":"m 1267 463 q 1177 289 1267 365 q 995 199 1103 229 q 804 174 903 174 q 624 197 712 174 q 436 287 512 226 q 341 463 341 362 q 344 495 341 479 q 231 475 287 475 q 105 500 164 475 q 29 590 29 532 q 105 681 29 648 q 231 706 164 706 q 424 628 372 706 q 804 752 566 752 q 995 727 903 752 q 1177 637 1103 697 q 1267 463 1267 561 m 1209 463 q 1119 602 1209 541 q 957 674 1050 649 q 804 694 877 694 q 660 676 737 694 q 493 605 566 654 q 399 463 399 542 q 493 321 399 384 q 660 250 566 272 q 804 231 737 231 q 957 252 877 231 q 1119 324 1050 277 q 1209 463 1209 385 m 376 590 q 231 654 376 654 q 87 590 87 654 q 231 527 87 527 q 376 590 376 527 z "},"P":{"ha":637,"x_min":29,"x_max":608,"o":"m 608 347 q 580 147 608 241 q 488 -29 549 42 q 318 -116 414 -116 q 148 -29 222 -116 q 57 147 88 42 q 29 347 29 241 q 69 588 29 478 q 214 779 118 719 l 214 926 l 272 926 l 272 804 q 318 810 295 810 q 365 804 341 810 l 365 926 l 422 926 l 422 779 q 567 588 519 719 q 608 347 608 478 m 550 347 q 422 706 550 582 l 422 579 l 365 579 l 365 743 q 318 752 343 752 q 272 743 294 752 l 272 231 l 214 231 l 214 706 q 87 347 87 583 q 141 96 87 220 q 318 -58 208 -58 q 495 96 428 -58 q 550 347 550 220 z "},"Q":{"ha":984,"x_min":29,"x_max":955,"o":"m 955 579 q 818 252 955 389 q 492 116 682 116 q 166 252 302 116 q 29 579 29 389 l 29 608 l 463 608 l 463 926 l 521 926 l 521 608 l 955 608 l 955 579 m 896 550 l 521 550 l 521 347 l 463 347 l 463 550 l 88 550 q 217 282 101 391 q 492 174 333 174 q 767 282 650 174 q 896 550 883 391 z "},"R":{"ha":1100,"x_min":29,"x_max":1071,"o":"m 1071 434 l 954 434 q 807 126 941 252 q 492 0 674 0 q 166 137 302 0 q 29 463 29 273 q 166 789 29 653 q 492 926 302 926 q 807 800 674 926 q 954 492 941 674 l 1071 492 l 1071 434 m 896 434 l 608 434 l 608 492 l 896 492 q 767 759 883 650 q 492 868 650 868 q 206 749 325 868 q 87 463 87 630 q 206 177 87 296 q 492 58 325 58 q 767 167 650 58 q 896 434 883 275 z "},"S":{"ha":1127,"x_min":29,"x_max":1098,"o":"m 1098 289 l 332 289 q 376 174 376 238 q 325 52 376 103 q 203 0 273 0 q 80 52 132 0 q 29 174 29 103 q 71 284 29 236 q 174 345 112 332 q 318 655 184 528 q 635 781 453 781 q 962 645 825 781 q 1098 318 1098 508 l 1098 289 m 1039 347 q 910 615 1027 506 q 635 723 794 723 q 361 615 477 723 q 231 347 244 506 l 1039 347 m 318 174 q 284 255 318 220 q 203 289 249 289 q 122 255 156 289 q 87 174 87 220 q 122 93 87 127 q 203 58 156 58 q 284 92 250 58 q 318 174 318 126 z "},"T":{"ha":637,"x_min":29,"x_max":608,"o":"m 608 463 q 582 272 608 362 q 491 90 551 163 q 318 0 417 0 q 146 90 220 0 q 54 272 86 163 q 29 463 29 362 q 52 644 29 554 q 142 831 81 756 q 318 926 218 926 q 494 831 419 926 q 584 644 556 756 q 608 463 608 554 m 550 463 q 532 606 550 530 q 463 774 510 703 q 318 868 399 868 q 176 777 237 868 q 105 612 128 708 q 214 648 155 648 q 344 593 289 648 q 399 463 399 538 q 344 333 399 388 q 214 278 289 278 q 105 314 155 278 q 176 149 128 218 q 318 58 237 58 q 463 152 399 58 q 532 319 510 223 q 550 463 550 396 m 341 463 q 304 553 341 515 q 214 590 266 590 q 124 553 162 590 q 87 463 87 515 q 125 374 87 412 q 214 336 163 336 q 303 374 265 336 q 341 463 341 412 z "},"U":{"ha":752,"x_min":29,"x_max":723,"o":"m 723 463 q 621 218 723 321 q 376 116 519 116 q 131 218 234 116 q 29 463 29 321 q 131 708 29 605 q 376 810 234 810 q 621 708 519 810 q 723 463 723 605 m 666 463 q 580 667 666 582 q 376 752 495 752 q 172 667 257 752 q 87 463 87 582 q 172 259 87 344 q 376 174 257 174 q 580 259 494 174 q 666 463 666 345 z "},"V":{"ha":637,"x_min":29,"x_max":608,"o":"m 608 463 q 550 183 608 310 q 347 2 478 25 l 347 -116 l 289 -116 l 289 2 q 87 183 159 25 q 29 463 29 310 q 87 743 29 615 q 289 924 160 902 l 289 1042 l 347 1042 l 347 924 q 550 743 477 902 q 608 463 608 615 m 550 463 q 502 697 550 582 q 347 865 444 834 l 347 61 q 501 229 444 93 q 550 463 550 344 m 289 61 l 289 865 q 134 697 192 834 q 87 463 87 582 q 135 229 87 344 q 289 61 193 93 z "},"W":{"ha":868,"x_min":29,"x_max":839,"o":"m 839 434 l 521 434 l 521 0 l 492 0 q 166 137 302 0 q 29 463 29 273 q 166 789 29 653 q 492 926 302 926 l 521 926 l 521 492 l 839 492 l 839 434 m 463 59 l 463 434 l 260 434 l 260 492 l 463 492 l 463 867 q 196 738 304 854 q 87 463 87 622 q 196 188 87 304 q 463 59 304 72 z "},"X":{"ha":1127,"x_min":29,"x_max":1098,"o":"m 1098 752 q 1057 642 1098 690 q 954 581 1015 594 q 809 271 943 398 q 492 145 675 145 q 166 281 302 145 q 29 608 29 418 l 29 637 l 795 637 q 751 752 751 688 q 803 874 751 823 q 925 926 854 926 q 1047 874 995 926 q 1098 752 1098 823 m 1041 752 q 1006 833 1041 799 q 925 868 971 868 q 843 834 877 868 q 809 752 809 800 q 844 671 809 706 q 925 637 878 637 q 1006 671 971 637 q 1041 752 1041 706 m 896 579 l 88 579 q 217 311 101 420 q 492 203 333 203 q 767 311 650 203 q 896 579 883 420 z "},"Y":{"ha":637,"x_min":29,"x_max":608,"o":"m 608 619 q 484 238 608 381 q 561 46 561 186 q 536 -80 561 -21 q 446 -156 503 -156 q 355 -80 388 -156 q 330 46 330 -21 q 351 159 330 102 q 318 156 334 156 q 142 251 218 156 q 52 439 81 326 q 29 619 29 527 q 54 810 29 718 q 145 992 84 918 q 318 1082 220 1082 q 492 992 417 1082 q 582 810 552 918 q 608 619 608 718 m 550 619 q 529 772 550 692 q 457 934 505 865 q 318 1024 396 1024 q 179 933 241 1024 q 108 772 132 865 q 87 619 87 692 q 105 475 87 552 q 176 308 127 381 q 318 214 240 214 q 461 308 397 214 q 531 475 509 381 q 550 619 550 552 m 509 46 q 446 191 509 191 q 382 46 382 191 q 446 -98 382 -98 q 509 46 509 -98 z "},"Z":{"ha":984,"x_min":29,"x_max":955,"o":"m 955 463 q 860 287 955 362 q 672 197 785 226 q 492 174 583 174 q 301 199 391 174 q 119 291 192 230 q 29 463 29 365 q 119 635 29 561 q 301 727 192 696 q 492 752 391 752 q 672 729 583 752 q 860 639 785 700 q 955 463 955 564 m 619 567 q 581 656 619 618 q 492 694 543 694 q 403 656 441 694 q 365 567 365 618 q 403 478 365 516 q 492 440 441 440 q 581 478 543 440 q 619 567 619 516 m 897 463 q 806 605 897 544 q 641 676 737 652 q 677 567 677 626 q 622 437 677 492 q 492 382 567 382 q 362 437 417 382 q 307 567 307 492 q 343 676 307 626 q 178 605 247 653 q 87 463 87 544 q 242 286 87 353 q 492 231 365 231 q 742 285 619 231 q 897 463 897 353 z "},"[":{"ha":1127,"x_min":29,"x_max":1098,"o":"m 1098 823 l 29 823 l 29 926 l 1098 926 l 1098 823 m 1098 124 l 770 124 l 770 453 l 1098 453 l 1098 350 l 892 350 l 892 331 l 1016 331 l 1016 245 l 892 245 l 892 227 l 1098 227 l 1098 124 m 728 699 l 522 699 l 522 681 l 646 681 l 646 595 l 522 595 l 522 473 l 399 473 l 399 802 l 728 802 l 728 699 m 749 124 l 625 124 l 625 245 l 522 245 l 522 124 l 399 124 l 399 453 l 522 453 l 522 331 l 625 331 l 625 453 l 749 453 l 749 124 m 378 638 q 326 521 378 568 q 204 473 273 473 q 82 521 134 473 q 29 638 29 568 q 82 755 29 707 q 204 802 134 802 q 326 755 273 802 q 378 638 378 707 m 1098 0 l 29 0 l 29 103 l 1098 103 l 1098 0 m 378 350 l 265 350 l 265 124 l 142 124 l 142 350 l 29 350 l 29 453 l 378 453 l 378 350 m 267 638 q 248 681 267 663 q 204 699 229 699 q 159 681 178 699 q 140 638 140 663 q 159 594 140 612 q 204 576 178 576 q 248 594 229 576 q 267 638 267 612 z "},"\\":{"ha":521,"x_min":29,"x_max":492,"o":"m 492 463 q 423 300 492 369 q 260 231 354 231 q 98 300 167 231 q 29 463 29 369 q 98 626 29 557 q 260 694 167 694 q 423 626 354 694 q 492 463 492 557 z "},"]":{"ha":1127,"x_min":29,"x_max":1098,"o":"m 1098 823 l 29 823 l 29 926 l 1098 926 l 1098 823 m 1098 124 l 770 124 l 770 453 l 1098 453 l 1098 350 l 892 350 l 892 331 l 1016 331 l 1016 245 l 892 245 l 892 227 l 1098 227 l 1098 124 m 749 473 l 625 473 q 600 566 623 527 q 522 617 571 615 l 522 473 l 399 473 l 399 802 l 400 802 q 625 699 557 802 l 625 802 l 749 802 l 749 473 m 749 124 l 625 124 l 625 245 l 522 245 l 522 124 l 399 124 l 399 453 l 522 453 l 522 331 l 625 331 l 625 453 l 749 453 l 749 124 m 378 638 q 326 521 378 568 q 204 473 273 473 q 82 521 134 473 q 29 638 29 568 q 82 755 29 707 q 204 802 134 802 q 326 755 273 802 q 378 638 378 707 m 1098 0 l 29 0 l 29 103 l 1098 103 l 1098 0 m 378 350 l 265 350 l 265 124 l 142 124 l 142 350 l 29 350 l 29 453 l 378 453 l 378 350 m 267 638 q 248 681 267 663 q 204 699 229 699 q 159 681 178 699 q 140 638 140 663 q 159 594 140 612 q 204 576 178 576 q 248 594 229 576 q 267 638 267 612 z "},"^":{"ha":809,"x_min":29,"x_max":780,"o":"m 780 295 q 753 193 780 242 q 674 135 722 135 q 623 150 642 135 q 678 200 678 170 q 683 223 678 208 q 689 247 689 238 q 681 269 689 253 q 632 362 656 315 q 568 444 602 414 q 544 462 556 454 q 529 486 529 473 q 554 528 529 507 q 598 575 580 549 q 623 582 610 582 q 671 565 646 582 q 714 534 693 550 q 715 528 715 531 q 696 494 715 508 l 698 491 l 726 491 q 757 422 757 491 q 760 412 757 419 q 763 402 763 405 q 763 398 763 400 q 762 394 762 395 q 770 313 762 359 q 780 295 780 306 m 598 661 q 571 628 598 652 q 537 579 550 611 q 528 521 524 546 q 478 470 514 501 q 475 439 477 459 q 491 420 483 431 l 491 374 q 479 350 491 365 q 466 326 466 336 q 463 318 466 322 q 453 292 461 304 q 459 284 455 287 l 450 281 q 449 257 449 273 q 447 248 449 253 q 446 238 446 242 q 449 211 446 229 q 453 184 453 193 q 436 148 453 184 q 426 87 427 127 q 418 24 425 43 q 396 211 396 142 q 398 230 396 218 q 399 249 399 242 q 397 255 399 252 q 427 329 400 258 q 434 350 434 336 l 428 352 l 436 360 l 436 374 q 433 375 435 374 q 407 352 407 375 q 414 340 407 347 q 420 329 420 333 q 400 321 420 321 q 390 313 395 321 q 380 304 385 304 q 366 310 372 304 q 370 338 370 328 q 368 345 370 340 q 366 352 366 350 q 355 411 366 368 q 340 422 347 416 q 325 406 337 406 q 293 498 286 406 q 280 524 288 506 q 263 560 271 542 q 234 589 251 582 q 218 669 218 640 l 211 672 q 244 701 228 701 q 248 700 245 701 q 273 646 256 667 q 317 603 275 644 q 339 583 324 596 q 341 551 345 569 q 363 557 353 552 l 367 547 l 373 550 l 373 566 l 361 568 q 356 591 356 579 q 363 605 356 597 q 370 618 370 612 q 304 733 370 668 q 238 847 238 799 q 271 899 238 873 q 330 926 304 926 q 352 903 351 926 l 318 847 q 343 818 328 818 q 361 825 353 818 q 345 863 345 850 q 376 895 345 895 q 389 882 387 895 q 432 905 422 905 q 460 897 442 905 q 488 889 478 889 q 510 891 495 889 q 532 894 525 894 q 569 829 569 894 q 559 779 569 794 q 497 759 516 769 q 449 716 463 743 l 441 711 l 443 709 q 410 684 427 697 q 389 649 390 668 q 404 609 404 632 q 402 597 404 605 q 400 586 400 589 q 422 530 400 566 l 434 530 q 450 590 443 576 q 509 634 465 617 q 538 656 523 639 q 552 685 552 672 l 552 725 q 578 767 565 741 q 583 769 580 769 q 591 766 588 769 q 574 744 575 758 q 598 700 576 742 l 598 661 m 469 0 q 444 94 444 32 q 453 133 444 116 l 462 133 q 465 120 465 127 q 464 111 465 117 q 463 102 463 105 l 463 50 q 466 37 463 45 q 469 24 469 29 l 469 0 m 389 267 l 383 265 l 380 273 l 376 272 q 377 262 377 267 q 365 182 377 234 q 373 125 373 152 q 376 109 373 119 q 380 93 380 98 q 375 15 380 80 q 362 110 362 74 q 359 126 362 116 q 355 141 355 135 q 326 193 355 163 q 297 245 297 223 q 300 285 297 258 q 302 326 302 311 q 318 338 304 328 q 336 345 328 345 q 348 343 343 345 q 389 267 359 316 m 264 498 q 221 434 264 475 q 144 355 154 369 q 101 253 101 303 q 125 188 101 221 q 179 147 149 155 q 233 139 197 145 l 193 132 q 181 133 188 133 q 166 132 176 133 q 152 131 156 131 l 125 131 q 61 181 95 131 q 29 258 29 227 l 29 303 q 34 337 29 315 q 38 370 38 359 q 57 445 38 402 q 100 513 76 488 q 116 532 105 519 q 139 560 127 545 q 172 574 152 574 q 228 546 192 574 q 264 498 264 517 m 333 98 q 325 49 333 87 q 310 110 310 71 q 306 131 310 117 q 301 153 301 146 q 308 168 301 168 l 313 168 q 333 156 333 168 l 333 98 m 373 802 l 373 803 l 365 804 l 365 802 l 373 802 m 709 454 l 709 456 q 704 463 709 463 q 696 458 699 463 l 696 449 q 703 447 699 448 l 700 451 l 701 451 q 708 449 700 451 q 709 454 709 450 m 443 381 l 443 404 l 436 404 l 427 394 q 434 381 427 392 l 443 381 z "},"_":{"ha":521,"x_min":29,"x_max":492,"o":"m 492 463 q 423 300 492 369 q 260 231 354 231 q 98 300 167 231 q 29 463 29 369 q 98 626 29 557 q 260 694 167 694 q 423 626 354 694 q 492 463 492 557 z "},"`":{"ha":521,"x_min":29,"x_max":492,"o":"m 492 463 q 423 300 492 369 q 260 231 354 231 q 98 300 167 231 q 29 463 29 369 q 98 626 29 557 q 260 694 167 694 q 423 626 354 694 q 492 463 492 557 z "},"a":{"ha":1505,"x_min":58,"x_max":1447,"o":"m 1447 926 l 745 521 l 58 521 l 58 926 l 255 926 l 255 718 l 692 718 l 1053 926 l 1447 926 m 1447 0 l 1053 0 l 692 208 l 255 208 l 255 0 l 58 0 l 58 405 l 745 405 l 1447 0 z "},"b":{"ha":1505,"x_min":58,"x_max":1447,"o":"m 1447 579 l 1152 579 l 1013 718 l 492 718 l 353 579 l 58 579 l 405 926 l 1100 926 l 1447 579 m 1042 359 l 463 359 l 463 567 l 1042 567 l 1042 359 m 1447 347 l 1100 0 l 405 0 l 58 347 l 353 347 l 492 208 l 1013 208 l 1152 347 l 1447 347 z "},"c":{"ha":972,"x_min":58,"x_max":914,"o":"m 914 0 l 706 0 l 706 637 l 914 637 l 914 0 m 590 289 l 382 289 l 382 637 l 590 637 l 590 289 m 266 289 l 58 289 l 58 926 l 266 926 l 266 289 z "},"d":{"ha":1337,"x_min":58,"x_max":1279,"o":"m 1279 926 l 353 0 l 58 0 l 405 347 l 81 347 l 289 556 l 613 556 l 775 718 l 58 718 l 266 926 l 1279 926 z "},"e":{"ha":1505,"x_min":58,"x_max":1447,"o":"m 1447 718 l 1244 718 l 1244 0 l 1036 0 l 1036 718 l 698 0 l 490 0 l 58 926 l 288 926 l 594 270 l 899 926 l 1447 926 l 1447 718 z "},"f":{"ha":1505,"x_min":58,"x_max":1447,"o":"m 1447 0 l 58 0 l 58 637 l 266 637 q 648 675 451 637 l 648 926 l 856 926 l 856 719 q 1447 926 1154 788 l 1447 718 q 856 515 1156 584 l 856 208 l 1447 208 l 1447 0 m 648 208 l 648 471 q 266 429 440 431 l 266 208 l 648 208 z "},"g":{"ha":1505,"x_min":58,"x_max":1447,"o":"m 1447 926 l 912 0 l 58 0 l 58 926 l 266 926 l 266 208 l 792 208 l 1086 718 l 683 718 l 683 602 l 475 602 l 475 926 l 1447 926 z "},"h":{"ha":1505,"x_min":58,"x_max":1447,"o":"m 1447 718 l 58 718 l 58 926 l 1447 926 l 1447 718 m 1157 359 l 347 359 l 347 567 l 1157 567 l 1157 359 m 1447 0 l 58 0 l 58 208 l 1447 208 l 1447 0 z "},"i":{"ha":679,"x_min":58,"x_max":622,"o":"m 622 0 l 413 0 l 413 632 l 205 422 l 58 571 l 413 926 l 622 926 l 622 0 z "},"j":{"ha":1505,"x_min":58,"x_max":1447,"o":"m 1447 926 l 912 0 l 58 0 l 58 208 l 792 208 l 1020 601 q 58 417 605 416 l 58 625 q 1209 926 712 623 l 1447 926 z "},"k":{"ha":1505,"x_min":58,"x_max":1447,"o":"m 1447 46 q 1433 14 1447 28 q 1400 0 1419 0 l 58 0 l 58 208 l 1238 208 l 1238 718 l 58 718 l 58 926 l 1400 926 q 1433 912 1419 926 q 1447 880 1447 898 l 1447 46 z "},"l":{"ha":926,"x_min":58,"x_max":868,"o":"m 868 0 l 660 0 l 58 347 l 161 529 l 660 241 l 660 926 l 868 926 l 868 0 z "},"m":{"ha":1042,"x_min":58,"x_max":984,"o":"m 984 208 l 775 0 l 58 0 l 593 926 l 926 926 l 926 718 l 713 718 l 419 208 l 984 208 z "},"n":{"ha":1447,"x_min":58,"x_max":1389,"o":"m 1389 0 l 1160 0 l 854 656 l 549 0 l 255 0 q 58 463 58 179 q 255 926 58 745 l 440 926 q 243 463 243 750 q 363 98 243 256 l 750 926 l 958 926 l 1389 0 z "},"o":{"ha":1505,"x_min":58,"x_max":1447,"o":"m 1447 208 l 1273 0 l 231 0 l 58 208 l 319 926 l 1185 926 l 1447 208 m 1225 208 l 1039 718 l 465 718 l 280 208 l 1225 208 z "},"p":{"ha":1076,"x_min":58,"x_max":1019,"o":"m 1019 0 l 255 0 q 58 463 58 182 q 255 926 58 743 l 602 926 l 602 637 l 394 637 l 394 718 l 333 718 q 266 438 266 595 q 318 208 266 318 l 810 208 l 810 926 l 1019 926 l 1019 0 z "},"q":{"ha":1505,"x_min":58,"x_max":1447,"o":"m 1447 579 l 1238 579 l 1238 718 l 266 718 l 266 208 l 984 208 l 775 0 l 104 0 q 72 14 86 0 q 58 46 58 28 l 58 880 q 72 912 58 898 q 104 926 86 926 l 1400 926 q 1433 912 1419 926 q 1447 880 1447 898 l 1447 579 z "},"r":{"ha":1337,"x_min":58,"x_max":1279,"o":"m 1279 926 l 353 0 l 58 0 l 775 718 l 58 718 l 266 926 l 1279 926 z "},"s":{"ha":1505,"x_min":58,"x_max":1447,"o":"m 1447 0 l 1152 0 l 226 926 l 521 926 l 1238 208 l 1238 926 l 1447 926 l 1447 0 m 782 201 l 729 0 l 58 179 l 112 381 l 782 201 z "},"t":{"ha":1505,"x_min":58,"x_max":1447,"o":"m 1447 521 l 972 0 l 532 0 l 58 521 l 341 521 l 626 208 l 648 208 l 648 926 l 856 926 l 856 208 l 878 208 l 1163 521 l 1447 521 z "},"u":{"ha":1505,"x_min":58,"x_max":1447,"o":"m 1447 46 q 1433 14 1447 28 q 1400 0 1419 0 l 104 0 q 72 14 86 0 q 58 46 58 28 l 58 926 l 266 926 l 266 208 l 1238 208 l 1238 718 l 795 718 l 715 579 l 475 579 l 675 926 l 1400 926 q 1433 912 1419 926 q 1447 880 1447 898 l 1447 46 z "},"v":{"ha":1505,"x_min":58,"x_max":1447,"o":"m 1447 926 l 856 289 l 856 0 l 648 0 l 648 289 l 58 926 l 341 926 l 752 480 l 1163 926 l 1447 926 z "},"w":{"ha":1505,"x_min":58,"x_max":1447,"o":"m 1447 46 q 1433 14 1447 28 q 1400 0 1419 0 l 104 0 q 72 14 86 0 q 58 46 58 28 l 58 880 q 72 912 58 898 q 104 926 86 926 l 1400 926 q 1433 912 1419 926 q 1447 880 1447 898 l 1447 46 m 1238 208 l 1238 718 l 266 718 l 266 208 l 1238 208 z "},"x":{"ha":1159,"x_min":58,"x_max":1101,"o":"m 1101 116 l 929 0 l 229 0 l 58 116 l 476 926 l 684 926 l 1101 116 m 824 208 l 580 679 l 336 208 l 824 208 z "},"y":{"ha":1470,"x_min":58,"x_max":1412,"o":"m 1412 926 l 833 0 l 602 0 l 67 852 q 58 880 58 867 q 72 912 58 898 q 104 926 86 926 l 613 926 l 830 579 l 611 579 l 521 718 l 397 718 l 722 197 l 1169 926 l 1412 926 z "},"z":{"ha":1505,"x_min":58,"x_max":1447,"o":"m 1447 46 q 1433 14 1447 28 q 1400 0 1419 0 l 104 0 q 72 14 86 0 q 58 46 58 28 l 58 324 l 289 324 l 289 208 l 1238 208 l 1238 567 l 697 567 l 493 440 l 146 440 l 683 775 l 1238 775 l 1238 926 l 1447 926 l 1447 46 z "},"{":{"ha":1127,"x_min":29,"x_max":1098,"o":"m 1098 823 l 29 823 l 29 926 l 1098 926 l 1098 823 m 1098 124 l 770 124 l 770 453 l 1098 453 l 1098 350 l 892 350 l 892 331 l 1016 331 l 1016 245 l 892 245 l 892 227 l 1098 227 l 1098 124 m 749 638 q 696 521 749 568 q 574 473 644 473 q 452 521 505 473 q 399 638 399 568 q 452 755 399 707 q 574 802 505 802 q 696 755 644 802 q 749 638 749 707 m 749 124 l 625 124 l 625 245 l 522 245 l 522 124 l 399 124 l 399 453 l 522 453 l 522 331 l 625 331 l 625 453 l 749 453 l 749 124 m 378 699 l 265 699 l 265 473 l 142 473 l 142 699 l 29 699 l 29 802 l 378 802 l 378 699 m 1098 0 l 29 0 l 29 103 l 1098 103 l 1098 0 m 378 350 l 265 350 l 265 124 l 142 124 l 142 350 l 29 350 l 29 453 l 378 453 l 378 350 m 638 638 q 619 681 638 663 q 574 699 600 699 q 530 681 549 699 q 510 638 510 663 q 530 594 510 612 q 574 576 549 576 q 619 594 600 576 q 638 638 638 612 z "},"|":{"ha":521,"x_min":29,"x_max":492,"o":"m 492 463 q 423 300 492 369 q 260 231 354 231 q 98 300 167 231 q 29 463 29 369 q 98 626 29 557 q 260 694 167 694 q 423 626 354 694 q 492 463 492 557 z "},"}":{"ha":521,"x_min":29,"x_max":492,"o":"m 492 463 q 423 300 492 369 q 260 231 354 231 q 98 300 167 231 q 29 463 29 369 q 98 626 29 557 q 260 694 167 694 q 423 626 354 694 q 492 463 492 557 z "},"~":{"ha":521,"x_min":29,"x_max":492,"o":"m 492 463 q 423 300 492 369 q 260 231 354 231 q 98 300 167 231 q 29 463 29 369 q 98 626 29 557 q 260 694 167 694 q 423 626 354 694 q 492 463 492 557 z "},"":{"ha":521,"x_min":29,"x_max":492,"o":"m 492 463 q 423 300 492 369 q 260 231 354 231 q 98 300 167 231 q 29 463 29 369 q 98 626 29 557 q 260 694 167 694 q 423 626 354 694 q 492 463 492 557 z "},"":{"ha":521,"x_min":29,"x_max":492,"o":"m 492 463 q 423 300 492 369 q 260 231 354 231 q 98 300 167 231 q 29 463 29 369 q 98 626 29 557 q 260 694 167 694 q 423 626 354 694 q 492 463 492 557 z "},"":{"ha":521,"x_min":29,"x_max":492,"o":"m 492 463 q 423 300 492 369 q 260 231 354 231 q 98 300 167 231 q 29 463 29 369 q 98 626 29 557 q 260 694 167 694 q 423 626 354 694 q 492 463 492 557 z "},"":{"ha":521,"x_min":29,"x_max":492,"o":"m 492 463 q 423 300 492 369 q 260 231 354 231 q 98 300 167 231 q 29 463 29 369 q 98 626 29 557 q 260 694 167 694 q 423 626 354 694 q 492 463 492 557 z "}}}
